<?xml version="1.0" encoding="utf-8" standalone="no"?>
<!DOCTYPE svg PUBLIC "-//W3C//DTD SVG 1.1//EN"
  "http://www.w3.org/Graphics/SVG/1.1/DTD/svg11.dtd">
<!-- Created with matplotlib (http://matplotlib.org/) -->
<svg height="171pt" version="1.1" viewBox="0 0 579 171" width="579pt" xmlns="http://www.w3.org/2000/svg" xmlns:xlink="http://www.w3.org/1999/xlink">
 <defs>
  <style type="text/css">
*{stroke-linecap:butt;stroke-linejoin:round;stroke-miterlimit:100000;}
  </style>
 </defs>
 <g id="figure_1">
  <g id="patch_1">
   <path d="M 0 171.565714 
L 579.308132 171.565714 
L 579.308132 0 
L 0 0 
z
" style="fill:#ffffff;"/>
  </g>
  <g id="axes_1">
   <g id="patch_2">
    <path d="M 7.2 164.365714 
L 557.28 164.365714 
L 557.28 7.2 
L 7.2 7.2 
z
" style="fill:#ffffff;"/>
   </g>
   <g id="line2d_1">
    <path clip-path="url(#pc32db42164)" d="M 17.778462 161.343297 
L 546.701538 161.343297 
L 546.701538 10.222418 
L 17.778462 10.222418 
" style="fill:none;stroke:#000000;stroke-linecap:square;"/>
   </g>
   <g id="line2d_2">
    <path clip-path="url(#pc32db42164)" d="M 17.778462 85.782857 
L 546.701538 85.782857 
" style="fill:none;stroke:#000000;stroke-linecap:square;"/>
   </g>
   <g id="line2d_3">
    <path clip-path="url(#pc32db42164)" d="M 17.778462 161.343297 
L 17.778462 10.222418 
" style="fill:none;stroke:#000000;stroke-linecap:square;"/>
   </g>
   <g id="line2d_4">
    <path clip-path="url(#pc32db42164)" d="M 93.338901 161.343297 
L 93.338901 10.222418 
" style="fill:none;stroke:#000000;stroke-linecap:square;"/>
   </g>
   <g id="line2d_5">
    <path clip-path="url(#pc32db42164)" d="M 168.899341 161.343297 
L 168.899341 10.222418 
" style="fill:none;stroke:#000000;stroke-linecap:square;"/>
   </g>
   <g id="line2d_6">
    <path clip-path="url(#pc32db42164)" d="M 244.45978 161.343297 
L 244.45978 10.222418 
" style="fill:none;stroke:#000000;stroke-linecap:square;"/>
   </g>
   <g id="line2d_7">
    <path clip-path="url(#pc32db42164)" d="M 320.02022 161.343297 
L 320.02022 10.222418 
" style="fill:none;stroke:#000000;stroke-linecap:square;"/>
   </g>
   <g id="line2d_8">
    <path clip-path="url(#pc32db42164)" d="M 395.580659 161.343297 
L 395.580659 10.222418 
" style="fill:none;stroke:#000000;stroke-linecap:square;"/>
   </g>
   <g id="line2d_9">
    <path clip-path="url(#pc32db42164)" d="M 471.141099 161.343297 
L 471.141099 10.222418 
" style="fill:none;stroke:#000000;stroke-linecap:square;"/>
   </g>
   <g id="matplotlib.axis_1"/>
   <g id="matplotlib.axis_2"/>
   <g id="text_1">
    <!-- $\clubsuit$ -->
    <defs>
     <path d="M 19.921875 -2.203125 
Q 14.890625 -2.203125 10.984375 0.578125 
Q 7.078125 3.375 4.921875 7.890625 
Q 2.78125 12.40625 2.78125 17.28125 
Q 2.78125 21.875 4.421875 26.40625 
Q 6.0625 30.953125 9.40625 33.875 
Q 12.75 36.8125 17.390625 36.8125 
Q 23.1875 36.8125 26.609375 32.515625 
L 28.90625 37.109375 
Q 25.203125 39.9375 23.1875 44.28125 
Q 21.1875 48.640625 21.1875 53.21875 
Q 21.1875 58.0625 23.484375 62.625 
Q 25.78125 67.1875 29.875 69.9375 
Q 33.984375 72.703125 38.921875 72.703125 
Q 42.78125 72.703125 46 71.140625 
Q 49.21875 69.578125 51.609375 66.75 
Q 54 63.921875 55.296875 60.46875 
Q 56.59375 57.03125 56.59375 53.21875 
Q 56.59375 48.640625 54.5625 44.234375 
Q 52.546875 39.84375 48.875 37.109375 
L 51.21875 32.515625 
Q 54.640625 36.8125 60.5 36.8125 
Q 65.1875 36.8125 68.453125 33.875 
Q 71.734375 30.953125 73.359375 26.40625 
Q 75 21.875 75 17.28125 
Q 75 12.40625 72.875 7.890625 
Q 70.75 3.375 66.84375 0.578125 
Q 62.9375 -2.203125 57.90625 -2.203125 
Q 53.328125 -2.203125 49.609375 0.1875 
Q 45.90625 2.59375 45.90625 6.984375 
L 40.921875 6.984375 
Q 40.921875 -1.8125 43.703125 -10.59375 
L 43.703125 -10.984375 
Q 43.703125 -11.8125 43.1875 -12.390625 
Q 42.671875 -12.984375 41.890625 -12.984375 
L 35.984375 -12.984375 
Q 35.15625 -12.984375 34.609375 -12.390625 
Q 34.078125 -11.8125 34.078125 -10.984375 
Q 34.078125 -10.6875 34.1875 -10.59375 
Q 36.921875 -1.46875 36.921875 6.984375 
L 31.890625 6.984375 
Q 31.890625 4 30.078125 1.890625 
Q 28.265625 -0.203125 25.5 -1.203125 
Q 22.75 -2.203125 19.921875 -2.203125 
" id="Cmsy10-7c"/>
    </defs>
    <g transform="translate(50.8786813187 51.3138873626)scale(0.12 -0.12)">
     <use transform="translate(0.0 0.296875)" xlink:href="#Cmsy10-7c"/>
    </g>
   </g>
   <g id="text_2">
    <!-- $\diamondsuit$ -->
    <defs>
     <path d="M 37.203125 -15.375 
Q 24.609375 10.0625 6.109375 26.90625 
Q 5.609375 27.390625 5.609375 28.21875 
Q 5.609375 28.953125 6.109375 29.59375 
Q 12.25 35.109375 18.015625 42.015625 
Q 23.78125 48.921875 28.53125 56.421875 
Q 33.296875 63.921875 37.203125 71.78125 
Q 37.703125 72.703125 38.921875 72.703125 
Q 40.09375 72.703125 40.578125 71.78125 
Q 44.484375 63.921875 49.234375 56.421875 
Q 54 48.921875 59.765625 42.015625 
Q 65.53125 35.109375 71.6875 29.59375 
Q 72.21875 28.953125 72.21875 28.21875 
Q 72.21875 27.34375 71.6875 26.90625 
Q 53.171875 10.0625 40.578125 -15.375 
Q 40.09375 -16.3125 38.921875 -16.3125 
Q 37.703125 -16.3125 37.203125 -15.375 
M 38.921875 -9.90625 
Q 41.703125 -4.59375 44.84375 0.53125 
Q 48 5.671875 51.4375 10.359375 
Q 54.890625 15.046875 59.015625 19.734375 
Q 63.140625 24.421875 67.1875 28.21875 
Q 63.328125 31.890625 59.25 36.421875 
Q 55.171875 40.96875 51.390625 46.171875 
Q 47.609375 51.375 44.703125 56.109375 
Q 41.796875 60.84375 38.921875 66.3125 
Q 33.109375 55.125 26.21875 45.765625 
Q 19.34375 36.421875 10.59375 28.21875 
Q 14.59375 24.515625 18.765625 19.78125 
Q 22.953125 15.046875 26.21875 10.625 
Q 29.5 6.203125 32.84375 0.828125 
Q 36.1875 -4.546875 38.921875 -9.90625 
" id="Cmsy10-7d"/>
    </defs>
    <g transform="translate(50.8786813187 126.874326923)scale(0.12 -0.12)">
     <use transform="translate(0.0 0.296875)" xlink:href="#Cmsy10-7d"/>
    </g>
   </g>
   <g id="text_3">
    <!-- $\diamondsuit$ -->
    <g transform="translate(126.439120879 51.3138873626)scale(0.12 -0.12)">
     <use transform="translate(0.0 0.296875)" xlink:href="#Cmsy10-7d"/>
    </g>
   </g>
   <g id="text_4">
    <!-- $\heartsuit$ -->
    <defs>
     <path d="M 21.578125 18.609375 
Q 17.1875 23 13.625 27.640625 
Q 10.0625 32.28125 7.828125 37.578125 
Q 5.609375 42.875 5.609375 48.484375 
Q 5.609375 58.0625 9.484375 64.8125 
Q 13.375 71.578125 22.21875 71.578125 
Q 25.78125 71.578125 29.03125 70.140625 
Q 32.28125 68.703125 34.8125 66.15625 
Q 37.359375 63.625 38.921875 60.40625 
Q 41.359375 65.4375 45.75 68.5 
Q 50.140625 71.578125 55.609375 71.578125 
Q 64.453125 71.578125 68.328125 64.8125 
Q 72.21875 58.0625 72.21875 48.484375 
Q 72.21875 42.875 70.015625 37.578125 
Q 67.828125 32.28125 64.359375 27.78125 
Q 60.890625 23.296875 56.203125 18.609375 
Q 55.671875 18.0625 52 14.46875 
Q 48.34375 10.890625 46.828125 9.109375 
Q 45.3125 7.328125 43.75 4.515625 
Q 42.1875 1.703125 40.828125 -2.09375 
Q 40.234375 -3.328125 38.921875 -3.328125 
Q 37.453125 -3.328125 37.109375 -2.09375 
Q 35.25 2.9375 33.171875 6.0625 
Q 31.109375 9.1875 27.984375 12.3125 
Q 24.859375 15.4375 21.578125 18.609375 
M 24.609375 21.296875 
Q 27.390625 18.5625 30.171875 15.84375 
Q 32.953125 13.140625 34.953125 10.5 
Q 36.96875 7.859375 38.921875 3.90625 
Q 40.375 6.890625 41.96875 9.171875 
Q 43.5625 11.46875 45.125 13.171875 
Q 46.6875 14.890625 49.125 17.25 
Q 51.5625 19.625 53.21875 21.296875 
Q 57.8125 25.875 60.9375 29.875 
Q 64.0625 33.890625 66.140625 38.640625 
Q 68.21875 43.40625 68.21875 48.578125 
Q 68.21875 56.453125 65.421875 62.015625 
Q 62.640625 67.578125 55.609375 67.578125 
Q 51.859375 67.578125 48.6875 65.578125 
Q 45.515625 63.578125 43.484375 60.28125 
Q 41.453125 56.984375 40.921875 53.328125 
Q 40.578125 51.421875 38.921875 51.421875 
Q 38.1875 51.421875 37.625 51.828125 
Q 37.0625 52.25 37.015625 52.984375 
Q 36.421875 56.78125 34.421875 60.171875 
Q 32.421875 63.578125 29.296875 65.578125 
Q 26.171875 67.578125 22.21875 67.578125 
Q 18.453125 67.578125 15.984375 65.890625 
Q 13.53125 64.203125 12.140625 61.4375 
Q 10.75 58.6875 10.1875 55.34375 
Q 9.625 52 9.625 48.578125 
Q 9.625 44.671875 10.859375 40.953125 
Q 12.109375 37.25 14.15625 33.875 
Q 16.21875 30.515625 18.703125 27.609375 
Q 21.1875 24.703125 24.609375 21.296875 
" id="Cmsy10-7e"/>
    </defs>
    <g transform="translate(126.439120879 126.874326923)scale(0.12 -0.12)">
     <use transform="translate(0.0 0.421875)" xlink:href="#Cmsy10-7e"/>
    </g>
   </g>
   <g id="text_5">
    <!-- $\heartsuit$ -->
    <g transform="translate(201.99956044 51.3138873626)scale(0.12 -0.12)">
     <use transform="translate(0.0 0.421875)" xlink:href="#Cmsy10-7e"/>
    </g>
   </g>
   <g id="text_6">
    <!-- $\spadesuit$ -->
    <defs>
     <path d="M 18.796875 -2.203125 
Q 11.28125 -2.203125 8.4375 4.796875 
Q 5.609375 11.8125 5.609375 20.796875 
Q 5.609375 28.953125 10.390625 35.671875 
Q 15.1875 42.390625 23.484375 49.90625 
Q 27.875 53.953125 31.21875 59.4375 
Q 34.578125 64.9375 37.109375 71.484375 
Q 37.453125 72.703125 38.921875 72.703125 
Q 40.234375 72.703125 40.828125 71.484375 
Q 45.90625 57.671875 54.296875 49.90625 
Q 59.96875 44.734375 63.53125 40.765625 
Q 67.09375 36.8125 69.65625 31.703125 
Q 72.21875 26.609375 72.21875 20.796875 
Q 72.21875 16.890625 71.703125 13.0625 
Q 71.1875 9.234375 69.75 5.71875 
Q 68.3125 2.203125 65.671875 0 
Q 63.03125 -2.203125 59.078125 -2.203125 
Q 55.90625 -2.203125 52.921875 -1.265625 
Q 49.953125 -0.34375 47.921875 1.734375 
Q 45.90625 3.8125 45.90625 6.890625 
L 45.90625 6.984375 
L 40.921875 6.984375 
Q 40.921875 -1.8125 43.703125 -10.59375 
L 43.703125 -10.984375 
Q 43.703125 -11.8125 43.1875 -12.390625 
Q 42.671875 -12.984375 41.890625 -12.984375 
L 35.984375 -12.984375 
Q 35.15625 -12.984375 34.609375 -12.390625 
Q 34.078125 -11.8125 34.078125 -10.984375 
Q 34.078125 -10.6875 34.1875 -10.59375 
Q 36.921875 -1.46875 36.921875 6.984375 
L 31.890625 6.984375 
Q 31.890625 2.390625 27.859375 0.09375 
Q 23.828125 -2.203125 18.796875 -2.203125 
" id="Cmsy10-c4"/>
    </defs>
    <g transform="translate(201.99956044 126.874326923)scale(0.12 -0.12)">
     <use transform="translate(0.0 0.296875)" xlink:href="#Cmsy10-c4"/>
    </g>
   </g>
   <g id="text_7">
    <!-- $\spadesuit$ -->
    <g transform="translate(277.56 51.3138873626)scale(0.12 -0.12)">
     <use transform="translate(0.0 0.296875)" xlink:href="#Cmsy10-c4"/>
    </g>
   </g>
   <g id="text_8">
    <!-- $\clubsuit$ -->
    <g transform="translate(277.56 126.874326923)scale(0.12 -0.12)">
     <use transform="translate(0.0 0.296875)" xlink:href="#Cmsy10-7c"/>
    </g>
   </g>
   <g id="text_9">
    <!-- $\nabla$ -->
    <defs>
     <path d="M 39.109375 -2.203125 
L 4.6875 67.1875 
Q 4.6875 67.28125 4.65625 67.359375 
Q 4.640625 67.4375 4.59375 67.484375 
Q 4.59375 68.3125 5.421875 68.3125 
L 77.78125 68.3125 
Q 78.609375 68.3125 78.609375 67.484375 
Q 78.609375 67.390625 78.578125 67.328125 
Q 78.5625 67.28125 78.515625 67.1875 
L 44.09375 -2.203125 
Q 43.609375 -3.328125 42.28125 -3.328125 
L 40.921875 -3.328125 
Q 39.59375 -3.328125 39.109375 -2.203125 
M 44.484375 6.5 
L 71.390625 60.796875 
L 17.578125 60.796875 
z
" id="Cmsy10-72"/>
    </defs>
    <g transform="translate(352.76043956 51.3138873626)scale(0.12 -0.12)">
     <use transform="translate(0.0 0.6875)" xlink:href="#Cmsy10-72"/>
    </g>
   </g>
   <g id="text_10">
    <!-- $\sqrt{x}$ -->
    <defs>
     <path d="M 42.390625 -116.015625 
L 19.828125 -63.484375 
L 12.796875 -68.890625 
L 10.984375 -67.09375 
L 25.296875 -56 
L 46.390625 -105.078125 
L 98.296875 3.078125 
Q 98.78125 4 100 4 
Q 100.828125 4 101.40625 3.40625 
Q 102 2.828125 102 2 
Q 102 1.515625 101.90625 1.3125 
L 46.09375 -115.09375 
Q 45.703125 -116.015625 44.578125 -116.015625 
z
" id="Cmex10-70"/>
     <path d="M 7.8125 2.875 
Q 9.578125 1.515625 12.796875 1.515625 
Q 15.921875 1.515625 18.3125 4.515625 
Q 20.703125 7.515625 21.578125 11.078125 
L 26.125 28.8125 
Q 27.203125 33.640625 27.203125 35.40625 
Q 27.203125 37.890625 25.8125 39.75 
Q 24.421875 41.609375 21.921875 41.609375 
Q 18.75 41.609375 15.96875 39.625 
Q 13.1875 37.640625 11.28125 34.59375 
Q 9.375 31.546875 8.59375 28.421875 
Q 8.40625 27.78125 7.8125 27.78125 
L 6.59375 27.78125 
Q 5.8125 27.78125 5.8125 28.71875 
L 5.8125 29 
Q 6.78125 32.71875 9.125 36.25 
Q 11.46875 39.796875 14.859375 41.984375 
Q 18.265625 44.1875 22.125 44.1875 
Q 25.78125 44.1875 28.734375 42.234375 
Q 31.6875 40.28125 32.90625 36.921875 
Q 34.625 39.984375 37.28125 42.078125 
Q 39.9375 44.1875 43.109375 44.1875 
Q 45.265625 44.1875 47.5 43.421875 
Q 49.75 42.671875 51.171875 41.109375 
Q 52.59375 39.546875 52.59375 37.203125 
Q 52.59375 34.671875 50.953125 32.828125 
Q 49.3125 31 46.78125 31 
Q 45.171875 31 44.09375 32.03125 
Q 43.015625 33.0625 43.015625 34.625 
Q 43.015625 36.71875 44.453125 38.296875 
Q 45.90625 39.890625 47.90625 40.1875 
Q 46.09375 41.609375 42.921875 41.609375 
Q 39.703125 41.609375 37.328125 38.625 
Q 34.96875 35.640625 33.984375 31.984375 
L 29.59375 14.3125 
Q 28.515625 10.296875 28.515625 7.71875 
Q 28.515625 5.171875 29.953125 3.34375 
Q 31.390625 1.515625 33.796875 1.515625 
Q 38.484375 1.515625 42.15625 5.640625 
Q 45.84375 9.765625 47.015625 14.703125 
Q 47.21875 15.28125 47.796875 15.28125 
L 49.03125 15.28125 
Q 49.421875 15.28125 49.65625 15.015625 
Q 49.90625 14.75 49.90625 14.40625 
Q 49.90625 14.3125 49.8125 14.109375 
Q 48.390625 8.15625 43.84375 3.515625 
Q 39.3125 -1.125 33.59375 -1.125 
Q 29.9375 -1.125 26.984375 0.84375 
Q 24.03125 2.828125 22.796875 6.203125 
Q 21.234375 3.265625 18.46875 1.0625 
Q 15.71875 -1.125 12.59375 -1.125 
Q 10.453125 -1.125 8.171875 -0.359375 
Q 5.90625 0.390625 4.484375 1.953125 
Q 3.078125 3.515625 3.078125 5.90625 
Q 3.078125 8.25 4.703125 10.171875 
Q 6.34375 12.109375 8.796875 12.109375 
Q 10.453125 12.109375 11.578125 11.109375 
Q 12.703125 10.109375 12.703125 8.5 
Q 12.703125 6.390625 11.296875 4.828125 
Q 9.90625 3.265625 7.8125 2.875 
" id="Cmmi10-78"/>
    </defs>
    <g transform="translate(349.04043956 126.874326923)scale(0.12 -0.12)">
     <use transform="translate(0.0 73.453125)scale(0.63793776852)" xlink:href="#Cmex10-70"/>
     <use transform="translate(76.28125 0.5625)" xlink:href="#Cmmi10-78"/>
     <path d="M 63.78125 69.5 
L 63.78125 75.75 
L 145.861328 75.75 
L 145.861328 69.5 
L 63.78125 69.5 
z
"/>
    </g>
   </g>
   <g id="text_11">
    <!-- $\sqrt{x}$ -->
    <g transform="translate(424.600879121 51.3138873626)scale(0.12 -0.12)">
     <use transform="translate(0.0 73.453125)scale(0.63793776852)" xlink:href="#Cmex10-70"/>
     <use transform="translate(76.28125 0.5625)" xlink:href="#Cmmi10-78"/>
     <path d="M 63.78125 69.5 
L 63.78125 75.75 
L 145.861328 75.75 
L 145.861328 69.5 
L 63.78125 69.5 
z
"/>
    </g>
   </g>
   <g id="text_12">
    <!-- $\infty$ -->
    <defs>
     <path d="M 24.609375 -1.125 
Q 18.953125 -1.125 14.578125 2.1875 
Q 10.203125 5.515625 7.90625 10.78125 
Q 5.609375 16.0625 5.609375 21.578125 
Q 5.609375 25.828125 6.953125 29.875 
Q 8.296875 33.9375 10.828125 37.15625 
Q 13.375 40.375 16.96875 42.28125 
Q 20.5625 44.1875 24.90625 44.1875 
Q 29.390625 44.1875 33.59375 42.46875 
Q 37.796875 40.765625 41.28125 37.9375 
Q 44.78125 35.109375 47.796875 31.390625 
L 50.78125 27.390625 
Q 53.765625 32.125 57.375 35.859375 
Q 60.984375 39.59375 65.546875 41.890625 
Q 70.125 44.1875 75.296875 44.1875 
Q 79.640625 44.1875 83.203125 42.25 
Q 86.765625 40.328125 89.25 37 
Q 91.75 33.6875 93.015625 29.65625 
Q 94.28125 25.640625 94.28125 21.578125 
Q 94.28125 15.921875 91.90625 10.671875 
Q 89.546875 5.421875 85.171875 2.140625 
Q 80.8125 -1.125 75 -1.125 
Q 68.453125 -1.125 62.5625 2.390625 
Q 56.6875 5.90625 52.09375 11.71875 
L 49.125 15.71875 
Q 44.53125 8.25 38.296875 3.5625 
Q 32.078125 -1.125 24.609375 -1.125 
M 23.578125 2.390625 
Q 36.28125 2.390625 46.296875 19.390625 
L 41.015625 26.125 
Q 36.421875 32.171875 32.46875 35.59375 
Q 28.515625 39.015625 23.296875 39.015625 
Q 18.84375 39.015625 15.40625 36.5 
Q 11.96875 33.984375 10.078125 29.921875 
Q 8.203125 25.875 8.203125 21.484375 
Q 8.203125 18.109375 9.25 14.71875 
Q 10.296875 11.328125 12.296875 8.546875 
Q 14.3125 5.765625 17.15625 4.078125 
Q 20.015625 2.390625 23.578125 2.390625 
M 58.890625 17 
Q 63.484375 10.9375 67.4375 7.515625 
Q 71.390625 4.109375 76.609375 4.109375 
Q 79.9375 4.109375 82.71875 5.5625 
Q 85.5 7.03125 87.515625 9.515625 
Q 89.546875 12.015625 90.625 15.140625 
Q 91.703125 18.265625 91.703125 21.578125 
Q 91.703125 26.21875 89.84375 30.640625 
Q 87.984375 35.0625 84.484375 37.890625 
Q 81 40.71875 76.3125 40.71875 
Q 63.625 40.71875 53.609375 23.6875 
z
" id="Cmsy10-31"/>
    </defs>
    <g transform="translate(427.360879121 126.874326923)scale(0.12 -0.12)">
     <use transform="translate(0.0 0.8125)" xlink:href="#Cmsy10-31"/>
    </g>
   </g>
   <g id="text_13">
    <!-- $\infty$ -->
    <g transform="translate(502.921318681 51.3138873626)scale(0.12 -0.12)">
     <use transform="translate(0.0 0.8125)" xlink:href="#Cmsy10-31"/>
    </g>
   </g>
   <g id="text_14">
    <!-- $\nabla$ -->
    <g transform="translate(503.881318681 126.874326923)scale(0.12 -0.12)">
     <use transform="translate(0.0 0.6875)" xlink:href="#Cmsy10-72"/>
    </g>
   </g>
  </g>
 </g>
 <defs>
  <clipPath id="pc32db42164">
   <rect height="157.165714286" width="550.08" x="7.2" y="7.2"/>
  </clipPath>
 </defs>
</svg>
