<?xml version="1.0" encoding="utf-8" standalone="no"?>
<!DOCTYPE svg PUBLIC "-//W3C//DTD SVG 1.1//EN"
  "http://www.w3.org/Graphics/SVG/1.1/DTD/svg11.dtd">
<!-- Created with matplotlib (http://matplotlib.org/) -->
<svg height="290pt" version="1.1" viewBox="0 0 306 290" width="306pt" xmlns="http://www.w3.org/2000/svg" xmlns:xlink="http://www.w3.org/1999/xlink">
 <defs>
  <style type="text/css">
*{stroke-linecap:butt;stroke-linejoin:round;stroke-miterlimit:100000;}
  </style>
 </defs>
 <g id="figure_1">
  <g id="patch_1">
   <path d="M 0 290.894897 
L 306.252856 290.894897 
L 306.252856 0 
L 0 0 
z
" style="fill:#ffffff;"/>
  </g>
  <g id="axes_1">
   <g id="patch_2">
    <path d="M 15.342818 276.487449 
L 290.910038 276.487449 
L 290.910038 14.407449 
L 15.342818 14.407449 
z
" style="fill:#ffffff;"/>
   </g>
   <g id="line2d_1">
    <path clip-path="url(#p0f9613cc55)" d="M 235.006191 271.447449 
L 285.610668 115.702884 
" style="fill:none;stroke:#000000;stroke-linecap:square;"/>
   </g>
   <g id="line2d_2">
    <path clip-path="url(#p0f9613cc55)" d="M 219.368548 137.226253 
L 285.610668 115.702884 
" style="fill:none;stroke:#000000;stroke-linecap:square;"/>
   </g>
   <g id="line2d_3">
    <path clip-path="url(#p0f9613cc55)" d="M 71.246664 271.447449 
L 20.642188 115.702884 
" style="fill:none;stroke:#000000;stroke-linecap:square;"/>
   </g>
   <g id="line2d_4">
    <path clip-path="url(#p0f9613cc55)" d="M 71.246664 271.447449 
L 235.006191 271.447449 
" style="fill:none;stroke:#000000;stroke-linecap:square;"/>
   </g>
   <g id="line2d_5">
    <path clip-path="url(#p0f9613cc55)" d="M 112.186546 215.098536 
L 153.126428 89.098536 
" style="fill:none;stroke:#000000;stroke-linecap:square;"/>
   </g>
   <g id="line2d_6">
    <path clip-path="url(#p0f9613cc55)" d="M 86.884308 137.226253 
L 20.642188 115.702884 
" style="fill:none;stroke:#000000;stroke-linecap:square;"/>
   </g>
   <g id="line2d_7">
    <path clip-path="url(#p0f9613cc55)" d="M 71.246664 271.447449 
L 112.186546 215.098536 
" style="fill:none;stroke:#000000;stroke-linecap:square;"/>
   </g>
   <g id="line2d_8">
    <path clip-path="url(#p0f9613cc55)" d="M 194.066309 215.098536 
L 153.126428 89.098536 
" style="fill:none;stroke:#000000;stroke-linecap:square;"/>
   </g>
   <g id="line2d_9">
    <path clip-path="url(#p0f9613cc55)" d="M 219.368548 137.226253 
L 86.884308 137.226253 
" style="fill:none;stroke:#000000;stroke-linecap:square;"/>
   </g>
   <g id="line2d_10">
    <path clip-path="url(#p0f9613cc55)" d="M 153.126428 19.447449 
L 285.610668 115.702884 
" style="fill:none;stroke:#000000;stroke-linecap:square;"/>
   </g>
   <g id="line2d_11">
    <path clip-path="url(#p0f9613cc55)" d="M 194.066309 215.098536 
L 235.006191 271.447449 
" style="fill:none;stroke:#000000;stroke-linecap:square;"/>
   </g>
   <g id="line2d_12">
    <path clip-path="url(#p0f9613cc55)" d="M 219.368548 137.226253 
L 112.186546 215.098536 
" style="fill:none;stroke:#000000;stroke-linecap:square;"/>
   </g>
   <g id="line2d_13">
    <path clip-path="url(#p0f9613cc55)" d="M 194.066309 215.098536 
L 86.884308 137.226253 
" style="fill:none;stroke:#000000;stroke-linecap:square;"/>
   </g>
   <g id="line2d_14">
    <path clip-path="url(#p0f9613cc55)" d="M 153.126428 19.447449 
L 153.126428 89.098536 
" style="fill:none;stroke:#000000;stroke-linecap:square;"/>
   </g>
   <g id="line2d_15">
    <path clip-path="url(#p0f9613cc55)" d="M 153.126428 19.447449 
L 20.642188 115.702884 
" style="fill:none;stroke:#000000;stroke-linecap:square;"/>
   </g>
   <g id="matplotlib.axis_1"/>
   <g id="matplotlib.axis_2"/>
   <g id="PathCollection_1">
    <defs>
     <path d="M 0 12.247449 
C 3.248061 12.247449 6.363528 10.95698 8.660254 8.660254 
C 10.95698 6.363528 12.247449 3.248061 12.247449 0 
C 12.247449 -3.248061 10.95698 -6.363528 8.660254 -8.660254 
C 6.363528 -10.95698 3.248061 -12.247449 0 -12.247449 
C -3.248061 -12.247449 -6.363528 -10.95698 -8.660254 -8.660254 
C -10.95698 -6.363528 -12.247449 -3.248061 -12.247449 0 
C -12.247449 3.248061 -10.95698 6.363528 -8.660254 8.660254 
C -6.363528 10.95698 -3.248061 12.247449 0 12.247449 
z
" id="mac3291fa8c" style="stroke:#000000;"/>
    </defs>
    <g>
     <use style="fill:#ffffff;stroke:#000000;" x="153.126427754" xlink:href="#mac3291fa8c" y="19.4474487139"/>
     <use style="fill:#ffffff;stroke:#000000;" x="194.066309479" xlink:href="#mac3291fa8c" y="215.098535681"/>
     <use style="fill:#ffffff;stroke:#000000;" x="153.126427754" xlink:href="#mac3291fa8c" y="89.0985356809"/>
     <use style="fill:#ffffff;stroke:#000000;" x="219.368547881" xlink:href="#mac3291fa8c" y="137.226253098"/>
     <use style="fill:#ffffff;stroke:#000000;" x="71.2466643033" xlink:href="#mac3291fa8c" y="271.447448714"/>
     <use style="fill:#ffffff;stroke:#000000;" x="112.186546029" xlink:href="#mac3291fa8c" y="215.098535681"/>
     <use style="fill:#ffffff;stroke:#000000;" x="86.884307627" xlink:href="#mac3291fa8c" y="137.226253098"/>
     <use style="fill:#ffffff;stroke:#000000;" x="20.6421875" xlink:href="#mac3291fa8c" y="115.702883549"/>
     <use style="fill:#ffffff;stroke:#000000;" x="235.006191205" xlink:href="#mac3291fa8c" y="271.447448714"/>
     <use style="fill:#ffffff;stroke:#000000;" x="285.610668008" xlink:href="#mac3291fa8c" y="115.702883549"/>
    </g>
   </g>
   <g id="text_1">
    <!-- (1, 2) -->
    <defs>
     <path d="M 19.1875 8.296875 
L 53.609375 8.296875 
L 53.609375 0 
L 7.328125 0 
L 7.328125 8.296875 
Q 12.9375 14.109375 22.625 23.890625 
Q 32.328125 33.6875 34.8125 36.53125 
Q 39.546875 41.84375 41.421875 45.53125 
Q 43.3125 49.21875 43.3125 52.78125 
Q 43.3125 58.59375 39.234375 62.25 
Q 35.15625 65.921875 28.609375 65.921875 
Q 23.96875 65.921875 18.8125 64.3125 
Q 13.671875 62.703125 7.8125 59.421875 
L 7.8125 69.390625 
Q 13.765625 71.78125 18.9375 73 
Q 24.125 74.21875 28.421875 74.21875 
Q 39.75 74.21875 46.484375 68.546875 
Q 53.21875 62.890625 53.21875 53.421875 
Q 53.21875 48.921875 51.53125 44.890625 
Q 49.859375 40.875 45.40625 35.40625 
Q 44.1875 33.984375 37.640625 27.21875 
Q 31.109375 20.453125 19.1875 8.296875 
" id="BitstreamVeraSans-Roman-32"/>
     <path id="BitstreamVeraSans-Roman-20"/>
     <path d="M 12.40625 8.296875 
L 28.515625 8.296875 
L 28.515625 63.921875 
L 10.984375 60.40625 
L 10.984375 69.390625 
L 28.421875 72.90625 
L 38.28125 72.90625 
L 38.28125 8.296875 
L 54.390625 8.296875 
L 54.390625 0 
L 12.40625 0 
z
" id="BitstreamVeraSans-Roman-31"/>
     <path d="M 8.015625 75.875 
L 15.828125 75.875 
Q 23.140625 64.359375 26.78125 53.3125 
Q 30.421875 42.28125 30.421875 31.390625 
Q 30.421875 20.453125 26.78125 9.375 
Q 23.140625 -1.703125 15.828125 -13.1875 
L 8.015625 -13.1875 
Q 14.5 -2 17.703125 9.0625 
Q 20.90625 20.125 20.90625 31.390625 
Q 20.90625 42.671875 17.703125 53.65625 
Q 14.5 64.65625 8.015625 75.875 
" id="BitstreamVeraSans-Roman-29"/>
     <path d="M 31 75.875 
Q 24.46875 64.65625 21.28125 53.65625 
Q 18.109375 42.671875 18.109375 31.390625 
Q 18.109375 20.125 21.3125 9.0625 
Q 24.515625 -2 31 -13.1875 
L 23.1875 -13.1875 
Q 15.875 -1.703125 12.234375 9.375 
Q 8.59375 20.453125 8.59375 31.390625 
Q 8.59375 42.28125 12.203125 53.3125 
Q 15.828125 64.359375 23.1875 75.875 
z
" id="BitstreamVeraSans-Roman-28"/>
     <path d="M 11.71875 12.40625 
L 22.015625 12.40625 
L 22.015625 4 
L 14.015625 -11.625 
L 7.71875 -11.625 
L 11.71875 4 
z
" id="BitstreamVeraSans-Roman-2c"/>
    </defs>
    <g transform="translate(139.684240254 22.2068237139)scale(0.1 -0.1)">
     <use xlink:href="#BitstreamVeraSans-Roman-28"/>
     <use x="39.013671875" xlink:href="#BitstreamVeraSans-Roman-31"/>
     <use x="102.63671875" xlink:href="#BitstreamVeraSans-Roman-2c"/>
     <use x="134.423828125" xlink:href="#BitstreamVeraSans-Roman-20"/>
     <use x="166.2109375" xlink:href="#BitstreamVeraSans-Roman-32"/>
     <use x="229.833984375" xlink:href="#BitstreamVeraSans-Roman-29"/>
    </g>
   </g>
   <g id="text_2">
    <!-- (1, 3) -->
    <defs>
     <path d="M 40.578125 39.3125 
Q 47.65625 37.796875 51.625 33 
Q 55.609375 28.21875 55.609375 21.1875 
Q 55.609375 10.40625 48.1875 4.484375 
Q 40.765625 -1.421875 27.09375 -1.421875 
Q 22.515625 -1.421875 17.65625 -0.515625 
Q 12.796875 0.390625 7.625 2.203125 
L 7.625 11.71875 
Q 11.71875 9.328125 16.59375 8.109375 
Q 21.484375 6.890625 26.8125 6.890625 
Q 36.078125 6.890625 40.9375 10.546875 
Q 45.796875 14.203125 45.796875 21.1875 
Q 45.796875 27.640625 41.28125 31.265625 
Q 36.765625 34.90625 28.71875 34.90625 
L 20.21875 34.90625 
L 20.21875 43.015625 
L 29.109375 43.015625 
Q 36.375 43.015625 40.234375 45.921875 
Q 44.09375 48.828125 44.09375 54.296875 
Q 44.09375 59.90625 40.109375 62.90625 
Q 36.140625 65.921875 28.71875 65.921875 
Q 24.65625 65.921875 20.015625 65.03125 
Q 15.375 64.15625 9.8125 62.3125 
L 9.8125 71.09375 
Q 15.4375 72.65625 20.34375 73.4375 
Q 25.25 74.21875 29.59375 74.21875 
Q 40.828125 74.21875 47.359375 69.109375 
Q 53.90625 64.015625 53.90625 55.328125 
Q 53.90625 49.265625 50.4375 45.09375 
Q 46.96875 40.921875 40.578125 39.3125 
" id="BitstreamVeraSans-Roman-33"/>
    </defs>
    <g transform="translate(180.624121979 217.857910681)scale(0.1 -0.1)">
     <use xlink:href="#BitstreamVeraSans-Roman-28"/>
     <use x="39.013671875" xlink:href="#BitstreamVeraSans-Roman-31"/>
     <use x="102.63671875" xlink:href="#BitstreamVeraSans-Roman-2c"/>
     <use x="134.423828125" xlink:href="#BitstreamVeraSans-Roman-20"/>
     <use x="166.2109375" xlink:href="#BitstreamVeraSans-Roman-33"/>
     <use x="229.833984375" xlink:href="#BitstreamVeraSans-Roman-29"/>
    </g>
   </g>
   <g id="text_3">
    <!-- (1, 4) -->
    <defs>
     <path d="M 37.796875 64.3125 
L 12.890625 25.390625 
L 37.796875 25.390625 
z
M 35.203125 72.90625 
L 47.609375 72.90625 
L 47.609375 25.390625 
L 58.015625 25.390625 
L 58.015625 17.1875 
L 47.609375 17.1875 
L 47.609375 0 
L 37.796875 0 
L 37.796875 17.1875 
L 4.890625 17.1875 
L 4.890625 26.703125 
z
" id="BitstreamVeraSans-Roman-34"/>
    </defs>
    <g transform="translate(205.926360381 139.985628098)scale(0.1 -0.1)">
     <use xlink:href="#BitstreamVeraSans-Roman-28"/>
     <use x="39.013671875" xlink:href="#BitstreamVeraSans-Roman-31"/>
     <use x="102.63671875" xlink:href="#BitstreamVeraSans-Roman-2c"/>
     <use x="134.423828125" xlink:href="#BitstreamVeraSans-Roman-20"/>
     <use x="166.2109375" xlink:href="#BitstreamVeraSans-Roman-34"/>
     <use x="229.833984375" xlink:href="#BitstreamVeraSans-Roman-29"/>
    </g>
   </g>
   <g id="text_4">
    <!-- (1, 5) -->
    <defs>
     <path d="M 10.796875 72.90625 
L 49.515625 72.90625 
L 49.515625 64.59375 
L 19.828125 64.59375 
L 19.828125 46.734375 
Q 21.96875 47.46875 24.109375 47.828125 
Q 26.265625 48.1875 28.421875 48.1875 
Q 40.625 48.1875 47.75 41.5 
Q 54.890625 34.8125 54.890625 23.390625 
Q 54.890625 11.625 47.5625 5.09375 
Q 40.234375 -1.421875 26.90625 -1.421875 
Q 22.3125 -1.421875 17.546875 -0.640625 
Q 12.796875 0.140625 7.71875 1.703125 
L 7.71875 11.625 
Q 12.109375 9.234375 16.796875 8.0625 
Q 21.484375 6.890625 26.703125 6.890625 
Q 35.15625 6.890625 40.078125 11.328125 
Q 45.015625 15.765625 45.015625 23.390625 
Q 45.015625 31 40.078125 35.4375 
Q 35.15625 39.890625 26.703125 39.890625 
Q 22.75 39.890625 18.8125 39.015625 
Q 14.890625 38.140625 10.796875 36.28125 
z
" id="BitstreamVeraSans-Roman-35"/>
    </defs>
    <g transform="translate(57.8044768033 274.206823714)scale(0.1 -0.1)">
     <use xlink:href="#BitstreamVeraSans-Roman-28"/>
     <use x="39.013671875" xlink:href="#BitstreamVeraSans-Roman-31"/>
     <use x="102.63671875" xlink:href="#BitstreamVeraSans-Roman-2c"/>
     <use x="134.423828125" xlink:href="#BitstreamVeraSans-Roman-20"/>
     <use x="166.2109375" xlink:href="#BitstreamVeraSans-Roman-35"/>
     <use x="229.833984375" xlink:href="#BitstreamVeraSans-Roman-29"/>
    </g>
   </g>
   <g id="text_5">
    <!-- (2, 3) -->
    <g transform="translate(98.7443585287 217.857910681)scale(0.1 -0.1)">
     <use xlink:href="#BitstreamVeraSans-Roman-28"/>
     <use x="39.013671875" xlink:href="#BitstreamVeraSans-Roman-32"/>
     <use x="102.63671875" xlink:href="#BitstreamVeraSans-Roman-2c"/>
     <use x="134.423828125" xlink:href="#BitstreamVeraSans-Roman-20"/>
     <use x="166.2109375" xlink:href="#BitstreamVeraSans-Roman-33"/>
     <use x="229.833984375" xlink:href="#BitstreamVeraSans-Roman-29"/>
    </g>
   </g>
   <g id="text_6">
    <!-- (2, 4) -->
    <g transform="translate(221.564003705 274.206823714)scale(0.1 -0.1)">
     <use xlink:href="#BitstreamVeraSans-Roman-28"/>
     <use x="39.013671875" xlink:href="#BitstreamVeraSans-Roman-32"/>
     <use x="102.63671875" xlink:href="#BitstreamVeraSans-Roman-2c"/>
     <use x="134.423828125" xlink:href="#BitstreamVeraSans-Roman-20"/>
     <use x="166.2109375" xlink:href="#BitstreamVeraSans-Roman-34"/>
     <use x="229.833984375" xlink:href="#BitstreamVeraSans-Roman-29"/>
    </g>
   </g>
   <g id="text_7">
    <!-- (2, 5) -->
    <g transform="translate(73.442120127 139.985628098)scale(0.1 -0.1)">
     <use xlink:href="#BitstreamVeraSans-Roman-28"/>
     <use x="39.013671875" xlink:href="#BitstreamVeraSans-Roman-32"/>
     <use x="102.63671875" xlink:href="#BitstreamVeraSans-Roman-2c"/>
     <use x="134.423828125" xlink:href="#BitstreamVeraSans-Roman-20"/>
     <use x="166.2109375" xlink:href="#BitstreamVeraSans-Roman-35"/>
     <use x="229.833984375" xlink:href="#BitstreamVeraSans-Roman-29"/>
    </g>
   </g>
   <g id="text_8">
    <!-- (3, 4) -->
    <g transform="translate(7.2 118.462258549)scale(0.1 -0.1)">
     <use xlink:href="#BitstreamVeraSans-Roman-28"/>
     <use x="39.013671875" xlink:href="#BitstreamVeraSans-Roman-33"/>
     <use x="102.63671875" xlink:href="#BitstreamVeraSans-Roman-2c"/>
     <use x="134.423828125" xlink:href="#BitstreamVeraSans-Roman-20"/>
     <use x="166.2109375" xlink:href="#BitstreamVeraSans-Roman-34"/>
     <use x="229.833984375" xlink:href="#BitstreamVeraSans-Roman-29"/>
    </g>
   </g>
   <g id="text_9">
    <!-- (3, 5) -->
    <g transform="translate(272.168480508 118.462258549)scale(0.1 -0.1)">
     <use xlink:href="#BitstreamVeraSans-Roman-28"/>
     <use x="39.013671875" xlink:href="#BitstreamVeraSans-Roman-33"/>
     <use x="102.63671875" xlink:href="#BitstreamVeraSans-Roman-2c"/>
     <use x="134.423828125" xlink:href="#BitstreamVeraSans-Roman-20"/>
     <use x="166.2109375" xlink:href="#BitstreamVeraSans-Roman-35"/>
     <use x="229.833984375" xlink:href="#BitstreamVeraSans-Roman-29"/>
    </g>
   </g>
   <g id="text_10">
    <!-- (4, 5) -->
    <g transform="translate(139.684240254 91.8579106809)scale(0.1 -0.1)">
     <use xlink:href="#BitstreamVeraSans-Roman-28"/>
     <use x="39.013671875" xlink:href="#BitstreamVeraSans-Roman-34"/>
     <use x="102.63671875" xlink:href="#BitstreamVeraSans-Roman-2c"/>
     <use x="134.423828125" xlink:href="#BitstreamVeraSans-Roman-20"/>
     <use x="166.2109375" xlink:href="#BitstreamVeraSans-Roman-35"/>
     <use x="229.833984375" xlink:href="#BitstreamVeraSans-Roman-29"/>
    </g>
   </g>
  </g>
 </g>
 <defs>
  <clipPath id="p0f9613cc55">
   <rect height="262.08" width="275.567219728" x="15.3428178898" y="14.4074487139"/>
  </clipPath>
 </defs>
</svg>
