<?xml version="1.0" encoding="utf-8" standalone="no"?>
<!DOCTYPE svg PUBLIC "-//W3C//DTD SVG 1.1//EN"
  "http://www.w3.org/Graphics/SVG/1.1/DTD/svg11.dtd">
<!-- Created with matplotlib (http://matplotlib.org/) -->
<svg height="69pt" version="1.1" viewBox="0 0 734 69" width="734pt" xmlns="http://www.w3.org/2000/svg" xmlns:xlink="http://www.w3.org/1999/xlink">
 <defs>
  <style type="text/css">
*{stroke-linecap:butt;stroke-linejoin:round;stroke-miterlimit:100000;}
  </style>
 </defs>
 <g id="figure_1">
  <g id="patch_1">
   <path d="M 0 69.759876 
L 734.078386 69.759876 
L 734.078386 0 
L 0 0 
z
" style="fill:#ffffff;"/>
  </g>
  <g id="axes_1">
   <g id="patch_2">
    <path d="M 7.2 62.559876 
L 726.878386 62.559876 
L 726.878386 7.2 
L 7.2 7.2 
z
" style="fill:#ffffff;"/>
   </g>
   <g id="patch_3">
    <path clip-path="url(#p7d4369d1d2)" d="M 21.039969 61.495263 
L 47.655294 61.495263 
L 47.655294 8.264613 
L 21.039969 8.264613 
L 21.039969 61.495263 
z
" style="fill:none;stroke:#000000;stroke-linejoin:miter;"/>
   </g>
   <g id="patch_4">
    <path clip-path="url(#p7d4369d1d2)" d="M 47.655294 61.495263 
L 74.270619 61.495263 
L 74.270619 8.264613 
L 47.655294 8.264613 
L 47.655294 61.495263 
z
" style="fill:none;stroke:#000000;stroke-linejoin:miter;"/>
   </g>
   <g id="patch_5">
    <path clip-path="url(#p7d4369d1d2)" d="M 74.270619 61.495263 
L 100.885944 61.495263 
L 100.885944 8.264613 
L 74.270619 8.264613 
L 74.270619 61.495263 
z
" style="fill:none;stroke:#000000;stroke-linejoin:miter;"/>
   </g>
   <g id="patch_6">
    <path clip-path="url(#p7d4369d1d2)" d="M 100.885944 61.495263 
L 127.501269 61.495263 
L 127.501269 8.264613 
L 100.885944 8.264613 
L 100.885944 61.495263 
z
" style="fill:none;stroke:#000000;stroke-linejoin:miter;"/>
   </g>
   <g id="patch_7">
    <path clip-path="url(#p7d4369d1d2)" d="M 127.501269 61.495263 
L 154.116594 61.495263 
L 154.116594 8.264613 
L 127.501269 8.264613 
L 127.501269 61.495263 
z
" style="fill:none;stroke:#000000;stroke-linejoin:miter;"/>
   </g>
   <g id="patch_8">
    <path clip-path="url(#p7d4369d1d2)" d="M 154.116594 61.495263 
L 180.731918 61.495263 
L 180.731918 8.264613 
L 154.116594 8.264613 
L 154.116594 61.495263 
z
" style="fill:none;stroke:#000000;stroke-linejoin:miter;"/>
   </g>
   <g id="patch_9">
    <path clip-path="url(#p7d4369d1d2)" d="M 180.731918 61.495263 
L 207.347243 61.495263 
L 207.347243 8.264613 
L 180.731918 8.264613 
L 180.731918 61.495263 
z
" style="fill:none;stroke:#000000;stroke-linejoin:miter;"/>
   </g>
   <g id="patch_10">
    <path clip-path="url(#p7d4369d1d2)" d="M 207.347243 61.495263 
L 233.962568 61.495263 
L 233.962568 8.264613 
L 207.347243 8.264613 
L 207.347243 61.495263 
z
" style="fill:none;stroke:#000000;stroke-linejoin:miter;"/>
   </g>
   <g id="patch_11">
    <path clip-path="url(#p7d4369d1d2)" d="M 233.962568 61.495263 
L 260.577893 61.495263 
L 260.577893 8.264613 
L 233.962568 8.264613 
L 233.962568 61.495263 
z
" style="fill:none;stroke:#000000;stroke-linejoin:miter;"/>
   </g>
   <g id="patch_12">
    <path clip-path="url(#p7d4369d1d2)" d="M 260.577893 61.495263 
L 287.193218 61.495263 
L 287.193218 8.264613 
L 260.577893 8.264613 
L 260.577893 61.495263 
z
" style="fill:none;stroke:#000000;stroke-linejoin:miter;"/>
   </g>
   <g id="patch_13">
    <path clip-path="url(#p7d4369d1d2)" d="M 287.193218 61.495263 
L 313.808543 61.495263 
L 313.808543 8.264613 
L 287.193218 8.264613 
L 287.193218 61.495263 
z
" style="fill:none;stroke:#000000;stroke-linejoin:miter;"/>
   </g>
   <g id="patch_14">
    <path clip-path="url(#p7d4369d1d2)" d="M 313.808543 61.495263 
L 340.423868 61.495263 
L 340.423868 8.264613 
L 313.808543 8.264613 
L 313.808543 61.495263 
z
" style="fill:none;stroke:#000000;stroke-linejoin:miter;"/>
   </g>
   <g id="patch_15">
    <path clip-path="url(#p7d4369d1d2)" d="M 340.423868 61.495263 
L 367.039193 61.495263 
L 367.039193 8.264613 
L 340.423868 8.264613 
L 340.423868 61.495263 
z
" style="fill:none;stroke:#000000;stroke-linejoin:miter;"/>
   </g>
   <g id="patch_16">
    <path clip-path="url(#p7d4369d1d2)" d="M 367.039193 61.495263 
L 393.654518 61.495263 
L 393.654518 8.264613 
L 367.039193 8.264613 
L 367.039193 61.495263 
z
" style="fill:none;stroke:#000000;stroke-linejoin:miter;"/>
   </g>
   <g id="patch_17">
    <path clip-path="url(#p7d4369d1d2)" d="M 393.654518 61.495263 
L 420.269843 61.495263 
L 420.269843 8.264613 
L 393.654518 8.264613 
L 393.654518 61.495263 
z
" style="fill:none;stroke:#000000;stroke-linejoin:miter;"/>
   </g>
   <g id="patch_18">
    <path clip-path="url(#p7d4369d1d2)" d="M 420.269843 61.495263 
L 446.885168 61.495263 
L 446.885168 8.264613 
L 420.269843 8.264613 
L 420.269843 61.495263 
z
" style="fill:none;stroke:#000000;stroke-linejoin:miter;"/>
   </g>
   <g id="patch_19">
    <path clip-path="url(#p7d4369d1d2)" d="M 446.885168 61.495263 
L 473.500493 61.495263 
L 473.500493 8.264613 
L 446.885168 8.264613 
L 446.885168 61.495263 
z
" style="fill:none;stroke:#000000;stroke-linejoin:miter;"/>
   </g>
   <g id="patch_20">
    <path clip-path="url(#p7d4369d1d2)" d="M 473.500493 61.495263 
L 500.115817 61.495263 
L 500.115817 8.264613 
L 473.500493 8.264613 
L 473.500493 61.495263 
z
" style="fill:none;stroke:#000000;stroke-linejoin:miter;"/>
   </g>
   <g id="patch_21">
    <path clip-path="url(#p7d4369d1d2)" d="M 500.115817 61.495263 
L 526.731142 61.495263 
L 526.731142 8.264613 
L 500.115817 8.264613 
L 500.115817 61.495263 
z
" style="fill:none;stroke:#000000;stroke-linejoin:miter;"/>
   </g>
   <g id="patch_22">
    <path clip-path="url(#p7d4369d1d2)" d="M 526.731142 61.495263 
L 553.346467 61.495263 
L 553.346467 8.264613 
L 526.731142 8.264613 
L 526.731142 61.495263 
z
" style="fill:none;stroke:#000000;stroke-linejoin:miter;"/>
   </g>
   <g id="patch_23">
    <path clip-path="url(#p7d4369d1d2)" d="M 553.346467 61.495263 
L 579.961792 61.495263 
L 579.961792 8.264613 
L 553.346467 8.264613 
L 553.346467 61.495263 
z
" style="fill:none;stroke:#000000;stroke-linejoin:miter;"/>
   </g>
   <g id="patch_24">
    <path clip-path="url(#p7d4369d1d2)" d="M 579.961792 61.495263 
L 606.577117 61.495263 
L 606.577117 8.264613 
L 579.961792 8.264613 
L 579.961792 61.495263 
z
" style="fill:none;stroke:#000000;stroke-linejoin:miter;"/>
   </g>
   <g id="patch_25">
    <path clip-path="url(#p7d4369d1d2)" d="M 606.577117 61.495263 
L 633.192442 61.495263 
L 633.192442 8.264613 
L 606.577117 8.264613 
L 606.577117 61.495263 
z
" style="fill:none;stroke:#000000;stroke-linejoin:miter;"/>
   </g>
   <g id="patch_26">
    <path clip-path="url(#p7d4369d1d2)" d="M 633.192442 61.495263 
L 659.807767 61.495263 
L 659.807767 8.264613 
L 633.192442 8.264613 
L 633.192442 61.495263 
z
" style="fill:none;stroke:#000000;stroke-linejoin:miter;"/>
   </g>
   <g id="patch_27">
    <path clip-path="url(#p7d4369d1d2)" d="M 659.807767 61.495263 
L 686.423092 61.495263 
L 686.423092 8.264613 
L 659.807767 8.264613 
L 659.807767 61.495263 
z
" style="fill:none;stroke:#000000;stroke-linejoin:miter;"/>
   </g>
   <g id="patch_28">
    <path clip-path="url(#p7d4369d1d2)" d="M 686.423092 61.495263 
L 713.038417 61.495263 
L 713.038417 8.264613 
L 686.423092 8.264613 
L 686.423092 61.495263 
z
" style="fill:none;stroke:#000000;stroke-linejoin:miter;"/>
   </g>
   <g id="line2d_1">
    <path clip-path="url(#p7d4369d1d2)" d="M 21.039969 34.879938 
L 713.038417 34.879938 
" style="fill:none;stroke:#000000;stroke-linecap:square;"/>
   </g>
   <g id="matplotlib.axis_1"/>
   <g id="matplotlib.axis_2"/>
   <g id="text_1">
    <!-- a -->
    <defs>
     <path d="M 34.28125 27.484375 
Q 23.390625 27.484375 19.1875 25 
Q 14.984375 22.515625 14.984375 16.5 
Q 14.984375 11.71875 18.140625 8.90625 
Q 21.296875 6.109375 26.703125 6.109375 
Q 34.1875 6.109375 38.703125 11.40625 
Q 43.21875 16.703125 43.21875 25.484375 
L 43.21875 27.484375 
z
M 52.203125 31.203125 
L 52.203125 0 
L 43.21875 0 
L 43.21875 8.296875 
Q 40.140625 3.328125 35.546875 0.953125 
Q 30.953125 -1.421875 24.3125 -1.421875 
Q 15.921875 -1.421875 10.953125 3.296875 
Q 6 8.015625 6 15.921875 
Q 6 25.140625 12.171875 29.828125 
Q 18.359375 34.515625 30.609375 34.515625 
L 43.21875 34.515625 
L 43.21875 35.40625 
Q 43.21875 41.609375 39.140625 45 
Q 35.0625 48.390625 27.6875 48.390625 
Q 23 48.390625 18.546875 47.265625 
Q 14.109375 46.140625 10.015625 43.890625 
L 10.015625 52.203125 
Q 14.9375 54.109375 19.578125 55.046875 
Q 24.21875 56 28.609375 56 
Q 40.484375 56 46.34375 49.84375 
Q 52.203125 43.703125 52.203125 31.203125 
" id="BitstreamVeraSans-Roman-61"/>
    </defs>
    <g transform="translate(30.0579439129 25.4354004539)scale(0.14 -0.14)">
     <use xlink:href="#BitstreamVeraSans-Roman-61"/>
    </g>
   </g>
   <g id="text_2">
    <!-- n -->
    <defs>
     <path d="M 54.890625 33.015625 
L 54.890625 0 
L 45.90625 0 
L 45.90625 32.71875 
Q 45.90625 40.484375 42.875 44.328125 
Q 39.84375 48.1875 33.796875 48.1875 
Q 26.515625 48.1875 22.3125 43.546875 
Q 18.109375 38.921875 18.109375 30.90625 
L 18.109375 0 
L 9.078125 0 
L 9.078125 54.6875 
L 18.109375 54.6875 
L 18.109375 46.1875 
Q 21.34375 51.125 25.703125 53.5625 
Q 30.078125 56 35.796875 56 
Q 45.21875 56 50.046875 50.171875 
Q 54.890625 44.34375 54.890625 33.015625 
" id="BitstreamVeraSans-Roman-6e"/>
    </defs>
    <g transform="translate(29.9113814129 52.0507253685)scale(0.14 -0.14)">
     <use xlink:href="#BitstreamVeraSans-Roman-6e"/>
    </g>
   </g>
   <g id="text_3">
    <!-- b -->
    <defs>
     <path d="M 48.6875 27.296875 
Q 48.6875 37.203125 44.609375 42.84375 
Q 40.53125 48.484375 33.40625 48.484375 
Q 26.265625 48.484375 22.1875 42.84375 
Q 18.109375 37.203125 18.109375 27.296875 
Q 18.109375 17.390625 22.1875 11.75 
Q 26.265625 6.109375 33.40625 6.109375 
Q 40.53125 6.109375 44.609375 11.75 
Q 48.6875 17.390625 48.6875 27.296875 
M 18.109375 46.390625 
Q 20.953125 51.265625 25.265625 53.625 
Q 29.59375 56 35.59375 56 
Q 45.5625 56 51.78125 48.09375 
Q 58.015625 40.1875 58.015625 27.296875 
Q 58.015625 14.40625 51.78125 6.484375 
Q 45.5625 -1.421875 35.59375 -1.421875 
Q 29.59375 -1.421875 25.265625 0.953125 
Q 20.953125 3.328125 18.109375 8.203125 
L 18.109375 0 
L 9.078125 0 
L 9.078125 75.984375 
L 18.109375 75.984375 
z
" id="BitstreamVeraSans-Roman-62"/>
    </defs>
    <g transform="translate(56.5190500775 25.4354004539)scale(0.14 -0.14)">
     <use xlink:href="#BitstreamVeraSans-Roman-62"/>
    </g>
   </g>
   <g id="text_4">
    <!-- o -->
    <defs>
     <path d="M 30.609375 48.390625 
Q 23.390625 48.390625 19.1875 42.75 
Q 14.984375 37.109375 14.984375 27.296875 
Q 14.984375 17.484375 19.15625 11.84375 
Q 23.34375 6.203125 30.609375 6.203125 
Q 37.796875 6.203125 41.984375 11.859375 
Q 46.1875 17.53125 46.1875 27.296875 
Q 46.1875 37.015625 41.984375 42.703125 
Q 37.796875 48.390625 30.609375 48.390625 
M 30.609375 56 
Q 42.328125 56 49.015625 48.375 
Q 55.71875 40.765625 55.71875 27.296875 
Q 55.71875 13.875 49.015625 6.21875 
Q 42.328125 -1.421875 30.609375 -1.421875 
Q 18.84375 -1.421875 12.171875 6.21875 
Q 5.515625 13.875 5.515625 27.296875 
Q 5.515625 40.765625 12.171875 48.375 
Q 18.84375 56 30.609375 56 
" id="BitstreamVeraSans-Roman-6f"/>
    </defs>
    <g transform="translate(56.6798313275 52.0507253685)scale(0.14 -0.14)">
     <use xlink:href="#BitstreamVeraSans-Roman-6f"/>
    </g>
   </g>
   <g id="text_5">
    <!-- c -->
    <defs>
     <path d="M 48.78125 52.59375 
L 48.78125 44.1875 
Q 44.96875 46.296875 41.140625 47.34375 
Q 37.3125 48.390625 33.40625 48.390625 
Q 24.65625 48.390625 19.8125 42.84375 
Q 14.984375 37.3125 14.984375 27.296875 
Q 14.984375 17.28125 19.8125 11.734375 
Q 24.65625 6.203125 33.40625 6.203125 
Q 37.3125 6.203125 41.140625 7.25 
Q 44.96875 8.296875 48.78125 10.40625 
L 48.78125 2.09375 
Q 45.015625 0.34375 40.984375 -0.53125 
Q 36.96875 -1.421875 32.421875 -1.421875 
Q 20.0625 -1.421875 12.78125 6.34375 
Q 5.515625 14.109375 5.515625 27.296875 
Q 5.515625 40.671875 12.859375 48.328125 
Q 20.21875 56 33.015625 56 
Q 37.15625 56 41.109375 55.140625 
Q 45.0625 54.296875 48.78125 52.59375 
" id="BitstreamVeraSans-Roman-63"/>
    </defs>
    <g transform="translate(83.7293749922 25.4354004539)scale(0.14 -0.14)">
     <use xlink:href="#BitstreamVeraSans-Roman-63"/>
    </g>
   </g>
   <g id="text_6">
    <!-- p -->
    <defs>
     <path d="M 18.109375 8.203125 
L 18.109375 -20.796875 
L 9.078125 -20.796875 
L 9.078125 54.6875 
L 18.109375 54.6875 
L 18.109375 46.390625 
Q 20.953125 51.265625 25.265625 53.625 
Q 29.59375 56 35.59375 56 
Q 45.5625 56 51.78125 48.09375 
Q 58.015625 40.1875 58.015625 27.296875 
Q 58.015625 14.40625 51.78125 6.484375 
Q 45.5625 -1.421875 35.59375 -1.421875 
Q 29.59375 -1.421875 25.265625 0.953125 
Q 20.953125 3.328125 18.109375 8.203125 
M 48.6875 27.296875 
Q 48.6875 37.203125 44.609375 42.84375 
Q 40.53125 48.484375 33.40625 48.484375 
Q 26.265625 48.484375 22.1875 42.84375 
Q 18.109375 37.203125 18.109375 27.296875 
Q 18.109375 17.390625 22.1875 11.75 
Q 26.265625 6.109375 33.40625 6.109375 
Q 40.53125 6.109375 44.609375 11.75 
Q 48.6875 17.390625 48.6875 27.296875 
" id="BitstreamVeraSans-Roman-70"/>
    </defs>
    <g transform="translate(83.1343749922 52.0507253685)scale(0.14 -0.14)">
     <use xlink:href="#BitstreamVeraSans-Roman-70"/>
    </g>
   </g>
   <g id="text_7">
    <!-- d -->
    <defs>
     <path d="M 45.40625 46.390625 
L 45.40625 75.984375 
L 54.390625 75.984375 
L 54.390625 0 
L 45.40625 0 
L 45.40625 8.203125 
Q 42.578125 3.328125 38.25 0.953125 
Q 33.9375 -1.421875 27.875 -1.421875 
Q 17.96875 -1.421875 11.734375 6.484375 
Q 5.515625 14.40625 5.515625 27.296875 
Q 5.515625 40.1875 11.734375 48.09375 
Q 17.96875 56 27.875 56 
Q 33.9375 56 38.25 53.625 
Q 42.578125 51.265625 45.40625 46.390625 
M 14.796875 27.296875 
Q 14.796875 17.390625 18.875 11.75 
Q 22.953125 6.109375 30.078125 6.109375 
Q 37.203125 6.109375 41.296875 11.75 
Q 45.40625 17.390625 45.40625 27.296875 
Q 45.40625 37.203125 41.296875 42.84375 
Q 37.203125 48.484375 30.078125 48.484375 
Q 22.953125 48.484375 18.875 42.84375 
Q 14.796875 37.203125 14.796875 27.296875 
" id="BitstreamVeraSans-Roman-64"/>
    </defs>
    <g transform="translate(109.749699907 25.4354004539)scale(0.14 -0.14)">
     <use xlink:href="#BitstreamVeraSans-Roman-64"/>
    </g>
   </g>
   <g id="text_8">
    <!-- q -->
    <defs>
     <path d="M 14.796875 27.296875 
Q 14.796875 17.390625 18.875 11.75 
Q 22.953125 6.109375 30.078125 6.109375 
Q 37.203125 6.109375 41.296875 11.75 
Q 45.40625 17.390625 45.40625 27.296875 
Q 45.40625 37.203125 41.296875 42.84375 
Q 37.203125 48.484375 30.078125 48.484375 
Q 22.953125 48.484375 18.875 42.84375 
Q 14.796875 37.203125 14.796875 27.296875 
M 45.40625 8.203125 
Q 42.578125 3.328125 38.25 0.953125 
Q 33.9375 -1.421875 27.875 -1.421875 
Q 17.96875 -1.421875 11.734375 6.484375 
Q 5.515625 14.40625 5.515625 27.296875 
Q 5.515625 40.1875 11.734375 48.09375 
Q 17.96875 56 27.875 56 
Q 33.9375 56 38.25 53.625 
Q 42.578125 51.265625 45.40625 46.390625 
L 45.40625 54.6875 
L 54.390625 54.6875 
L 54.390625 -20.796875 
L 45.40625 -20.796875 
z
" id="BitstreamVeraSans-Roman-71"/>
    </defs>
    <g transform="translate(109.749699907 52.0507253685)scale(0.14 -0.14)">
     <use xlink:href="#BitstreamVeraSans-Roman-71"/>
    </g>
   </g>
   <g id="text_9">
    <!-- e -->
    <defs>
     <path d="M 56.203125 29.59375 
L 56.203125 25.203125 
L 14.890625 25.203125 
Q 15.484375 15.921875 20.484375 11.0625 
Q 25.484375 6.203125 34.421875 6.203125 
Q 39.59375 6.203125 44.453125 7.46875 
Q 49.3125 8.734375 54.109375 11.28125 
L 54.109375 2.78125 
Q 49.265625 0.734375 44.1875 -0.34375 
Q 39.109375 -1.421875 33.890625 -1.421875 
Q 20.796875 -1.421875 13.15625 6.1875 
Q 5.515625 13.8125 5.515625 26.8125 
Q 5.515625 40.234375 12.765625 48.109375 
Q 20.015625 56 32.328125 56 
Q 43.359375 56 49.78125 48.890625 
Q 56.203125 41.796875 56.203125 29.59375 
M 47.21875 32.234375 
Q 47.125 39.59375 43.09375 43.984375 
Q 39.0625 48.390625 32.421875 48.390625 
Q 24.90625 48.390625 20.390625 44.140625 
Q 15.875 39.890625 15.1875 32.171875 
z
" id="BitstreamVeraSans-Roman-65"/>
    </defs>
    <g transform="translate(136.501743571 25.4354004539)scale(0.14 -0.14)">
     <use xlink:href="#BitstreamVeraSans-Roman-65"/>
    </g>
   </g>
   <g id="text_10">
    <!-- r -->
    <defs>
     <path d="M 41.109375 46.296875 
Q 39.59375 47.171875 37.8125 47.578125 
Q 36.03125 48 33.890625 48 
Q 26.265625 48 22.1875 43.046875 
Q 18.109375 38.09375 18.109375 28.8125 
L 18.109375 0 
L 9.078125 0 
L 9.078125 54.6875 
L 18.109375 54.6875 
L 18.109375 46.1875 
Q 20.953125 51.171875 25.484375 53.578125 
Q 30.03125 56 36.53125 56 
Q 37.453125 56 38.578125 55.875 
Q 39.703125 55.765625 41.0625 55.515625 
z
" id="BitstreamVeraSans-Roman-72"/>
    </defs>
    <g transform="translate(137.931274821 52.0507253685)scale(0.14 -0.14)">
     <use xlink:href="#BitstreamVeraSans-Roman-72"/>
    </g>
   </g>
   <g id="text_11">
    <!-- f -->
    <defs>
     <path d="M 37.109375 75.984375 
L 37.109375 68.5 
L 28.515625 68.5 
Q 23.6875 68.5 21.796875 66.546875 
Q 19.921875 64.59375 19.921875 59.515625 
L 19.921875 54.6875 
L 34.71875 54.6875 
L 34.71875 47.703125 
L 19.921875 47.703125 
L 19.921875 0 
L 10.890625 0 
L 10.890625 47.703125 
L 2.296875 47.703125 
L 2.296875 54.6875 
L 10.890625 54.6875 
L 10.890625 58.5 
Q 10.890625 67.625 15.140625 71.796875 
Q 19.390625 75.984375 28.609375 75.984375 
z
" id="BitstreamVeraSans-Roman-66"/>
    </defs>
    <g transform="translate(164.960037236 25.4354004539)scale(0.14 -0.14)">
     <use xlink:href="#BitstreamVeraSans-Roman-66"/>
    </g>
   </g>
   <g id="text_12">
    <!-- s -->
    <defs>
     <path d="M 44.28125 53.078125 
L 44.28125 44.578125 
Q 40.484375 46.53125 36.375 47.5 
Q 32.28125 48.484375 27.875 48.484375 
Q 21.1875 48.484375 17.84375 46.4375 
Q 14.5 44.390625 14.5 40.28125 
Q 14.5 37.15625 16.890625 35.375 
Q 19.28125 33.59375 26.515625 31.984375 
L 29.59375 31.296875 
Q 39.15625 29.25 43.1875 25.515625 
Q 47.21875 21.78125 47.21875 15.09375 
Q 47.21875 7.46875 41.1875 3.015625 
Q 35.15625 -1.421875 24.609375 -1.421875 
Q 20.21875 -1.421875 15.453125 -0.5625 
Q 10.6875 0.296875 5.421875 2 
L 5.421875 11.28125 
Q 10.40625 8.6875 15.234375 7.390625 
Q 20.0625 6.109375 24.8125 6.109375 
Q 31.15625 6.109375 34.5625 8.28125 
Q 37.984375 10.453125 37.984375 14.40625 
Q 37.984375 18.0625 35.515625 20.015625 
Q 33.0625 21.96875 24.703125 23.78125 
L 21.578125 24.515625 
Q 13.234375 26.265625 9.515625 29.90625 
Q 5.8125 33.546875 5.8125 39.890625 
Q 5.8125 47.609375 11.28125 51.796875 
Q 16.75 56 26.8125 56 
Q 31.78125 56 36.171875 55.265625 
Q 40.578125 54.546875 44.28125 53.078125 
" id="BitstreamVeraSans-Roman-73"/>
    </defs>
    <g transform="translate(163.777693486 52.0507253685)scale(0.14 -0.14)">
     <use xlink:href="#BitstreamVeraSans-Roman-73"/>
    </g>
   </g>
   <g id="text_13">
    <!-- g -->
    <defs>
     <path d="M 45.40625 27.984375 
Q 45.40625 37.75 41.375 43.109375 
Q 37.359375 48.484375 30.078125 48.484375 
Q 22.859375 48.484375 18.828125 43.109375 
Q 14.796875 37.75 14.796875 27.984375 
Q 14.796875 18.265625 18.828125 12.890625 
Q 22.859375 7.515625 30.078125 7.515625 
Q 37.359375 7.515625 41.375 12.890625 
Q 45.40625 18.265625 45.40625 27.984375 
M 54.390625 6.78125 
Q 54.390625 -7.171875 48.1875 -13.984375 
Q 42 -20.796875 29.203125 -20.796875 
Q 24.46875 -20.796875 20.265625 -20.09375 
Q 16.0625 -19.390625 12.109375 -17.921875 
L 12.109375 -9.1875 
Q 16.0625 -11.328125 19.921875 -12.34375 
Q 23.78125 -13.375 27.78125 -13.375 
Q 36.625 -13.375 41.015625 -8.765625 
Q 45.40625 -4.15625 45.40625 5.171875 
L 45.40625 9.625 
Q 42.625 4.78125 38.28125 2.390625 
Q 33.9375 0 27.875 0 
Q 17.828125 0 11.671875 7.65625 
Q 5.515625 15.328125 5.515625 27.984375 
Q 5.515625 40.671875 11.671875 48.328125 
Q 17.828125 56 27.875 56 
Q 33.9375 56 38.28125 53.609375 
Q 42.625 51.21875 45.40625 46.390625 
L 45.40625 54.6875 
L 54.390625 54.6875 
z
" id="BitstreamVeraSans-Roman-67"/>
    </defs>
    <g transform="translate(189.595674651 25.4354004539)scale(0.14 -0.14)">
     <use xlink:href="#BitstreamVeraSans-Roman-67"/>
    </g>
   </g>
   <g id="text_14">
    <!-- t -->
    <defs>
     <path d="M 18.3125 70.21875 
L 18.3125 54.6875 
L 36.8125 54.6875 
L 36.8125 47.703125 
L 18.3125 47.703125 
L 18.3125 18.015625 
Q 18.3125 11.328125 20.140625 9.421875 
Q 21.96875 7.515625 27.59375 7.515625 
L 36.8125 7.515625 
L 36.8125 0 
L 27.59375 0 
Q 17.1875 0 13.234375 3.875 
Q 9.28125 7.765625 9.28125 18.015625 
L 9.28125 47.703125 
L 2.6875 47.703125 
L 2.6875 54.6875 
L 9.28125 54.6875 
L 9.28125 70.21875 
z
" id="BitstreamVeraSans-Roman-74"/>
    </defs>
    <g transform="translate(191.295362151 52.0507253685)scale(0.14 -0.14)">
     <use xlink:href="#BitstreamVeraSans-Roman-74"/>
    </g>
   </g>
   <g id="text_15">
    <!-- h -->
    <defs>
     <path d="M 54.890625 33.015625 
L 54.890625 0 
L 45.90625 0 
L 45.90625 32.71875 
Q 45.90625 40.484375 42.875 44.328125 
Q 39.84375 48.1875 33.796875 48.1875 
Q 26.515625 48.1875 22.3125 43.546875 
Q 18.109375 38.921875 18.109375 30.90625 
L 18.109375 0 
L 9.078125 0 
L 9.078125 75.984375 
L 18.109375 75.984375 
L 18.109375 46.1875 
Q 21.34375 51.125 25.703125 53.5625 
Q 30.078125 56 35.796875 56 
Q 45.21875 56 50.046875 50.171875 
Q 54.890625 44.34375 54.890625 33.015625 
" id="BitstreamVeraSans-Roman-68"/>
    </defs>
    <g transform="translate(216.218655815 25.4354004539)scale(0.14 -0.14)">
     <use xlink:href="#BitstreamVeraSans-Roman-68"/>
    </g>
   </g>
   <g id="text_16">
    <!-- u -->
    <defs>
     <path d="M 8.5 21.578125 
L 8.5 54.6875 
L 17.484375 54.6875 
L 17.484375 21.921875 
Q 17.484375 14.15625 20.5 10.265625 
Q 23.53125 6.390625 29.59375 6.390625 
Q 36.859375 6.390625 41.078125 11.03125 
Q 45.3125 15.671875 45.3125 23.6875 
L 45.3125 54.6875 
L 54.296875 54.6875 
L 54.296875 0 
L 45.3125 0 
L 45.3125 8.40625 
Q 42.046875 3.421875 37.71875 1 
Q 33.40625 -1.421875 27.6875 -1.421875 
Q 18.265625 -1.421875 13.375 4.4375 
Q 8.5 10.296875 8.5 21.578125 
" id="BitstreamVeraSans-Roman-75"/>
    </defs>
    <g transform="translate(216.218655815 52.0507253685)scale(0.14 -0.14)">
     <use xlink:href="#BitstreamVeraSans-Roman-75"/>
    </g>
   </g>
   <g id="text_17">
    <!-- i -->
    <defs>
     <path d="M 9.421875 54.6875 
L 18.40625 54.6875 
L 18.40625 0 
L 9.421875 0 
z
M 9.421875 75.984375 
L 18.40625 75.984375 
L 18.40625 64.59375 
L 9.421875 64.59375 
z
" id="BitstreamVeraSans-Roman-69"/>
    </defs>
    <g transform="translate(245.32554323 25.4354004539)scale(0.14 -0.14)">
     <use xlink:href="#BitstreamVeraSans-Roman-69"/>
    </g>
   </g>
   <g id="text_18">
    <!-- v -->
    <defs>
     <path d="M 2.984375 54.6875 
L 12.5 54.6875 
L 29.59375 8.796875 
L 46.6875 54.6875 
L 56.203125 54.6875 
L 35.6875 0 
L 23.484375 0 
z
" id="BitstreamVeraSans-Roman-76"/>
    </defs>
    <g transform="translate(243.12710573 52.0507253685)scale(0.14 -0.14)">
     <use xlink:href="#BitstreamVeraSans-Roman-76"/>
    </g>
   </g>
   <g id="text_19">
    <!-- j -->
    <defs>
     <path d="M 9.421875 54.6875 
L 18.40625 54.6875 
L 18.40625 -0.984375 
Q 18.40625 -11.421875 14.421875 -16.109375 
Q 10.453125 -20.796875 1.609375 -20.796875 
L -1.8125 -20.796875 
L -1.8125 -13.1875 
L 0.59375 -13.1875 
Q 5.71875 -13.1875 7.5625 -10.8125 
Q 9.421875 -8.453125 9.421875 -0.984375 
z
M 9.421875 75.984375 
L 18.40625 75.984375 
L 18.40625 64.59375 
L 9.421875 64.59375 
z
" id="BitstreamVeraSans-Roman-6a"/>
    </defs>
    <g transform="translate(271.940868145 25.4354004539)scale(0.14 -0.14)">
     <use xlink:href="#BitstreamVeraSans-Roman-6a"/>
    </g>
   </g>
   <g id="text_20">
    <!-- w -->
    <defs>
     <path d="M 4.203125 54.6875 
L 13.1875 54.6875 
L 24.421875 12.015625 
L 35.59375 54.6875 
L 46.1875 54.6875 
L 57.421875 12.015625 
L 68.609375 54.6875 
L 77.59375 54.6875 
L 63.28125 0 
L 52.6875 0 
L 40.921875 44.828125 
L 29.109375 0 
L 18.5 0 
z
" id="BitstreamVeraSans-Roman-77"/>
    </defs>
    <g transform="translate(268.160868145 52.0507253685)scale(0.14 -0.14)">
     <use xlink:href="#BitstreamVeraSans-Roman-77"/>
    </g>
   </g>
   <g id="text_21">
    <!-- k -->
    <defs>
     <path d="M 9.078125 75.984375 
L 18.109375 75.984375 
L 18.109375 31.109375 
L 44.921875 54.6875 
L 56.390625 54.6875 
L 27.390625 29.109375 
L 57.625 0 
L 45.90625 0 
L 18.109375 26.703125 
L 18.109375 0 
L 9.078125 0 
z
" id="BitstreamVeraSans-Roman-6b"/>
    </defs>
    <g transform="translate(296.447443059 25.4354004539)scale(0.14 -0.14)">
     <use xlink:href="#BitstreamVeraSans-Roman-6b"/>
    </g>
   </g>
   <g id="text_22">
    <!-- x -->
    <defs>
     <path d="M 54.890625 54.6875 
L 35.109375 28.078125 
L 55.90625 0 
L 45.3125 0 
L 29.390625 21.484375 
L 13.484375 0 
L 2.875 0 
L 24.125 28.609375 
L 4.6875 54.6875 
L 15.28125 54.6875 
L 29.78125 35.203125 
L 44.28125 54.6875 
z
" id="BitstreamVeraSans-Roman-78"/>
    </defs>
    <g transform="translate(296.357755559 52.0507253685)scale(0.14 -0.14)">
     <use xlink:href="#BitstreamVeraSans-Roman-78"/>
    </g>
   </g>
   <g id="text_23">
    <!-- l -->
    <defs>
     <path d="M 9.421875 75.984375 
L 18.40625 75.984375 
L 18.40625 0 
L 9.421875 0 
z
" id="BitstreamVeraSans-Roman-6c"/>
    </defs>
    <g transform="translate(325.171517974 25.4354004539)scale(0.14 -0.14)">
     <use xlink:href="#BitstreamVeraSans-Roman-6c"/>
    </g>
   </g>
   <g id="text_24">
    <!-- y -->
    <defs>
     <path d="M 32.171875 -5.078125 
Q 28.375 -14.84375 24.75 -17.8125 
Q 21.140625 -20.796875 15.09375 -20.796875 
L 7.90625 -20.796875 
L 7.90625 -13.28125 
L 13.1875 -13.28125 
Q 16.890625 -13.28125 18.9375 -11.515625 
Q 21 -9.765625 23.484375 -3.21875 
L 25.09375 0.875 
L 2.984375 54.6875 
L 12.5 54.6875 
L 29.59375 11.921875 
L 46.6875 54.6875 
L 56.203125 54.6875 
z
" id="BitstreamVeraSans-Roman-79"/>
    </defs>
    <g transform="translate(322.973080474 52.0507253685)scale(0.14 -0.14)">
     <use xlink:href="#BitstreamVeraSans-Roman-79"/>
    </g>
   </g>
   <g id="text_25">
    <!-- m -->
    <defs>
     <path d="M 52 44.1875 
Q 55.375 50.25 60.0625 53.125 
Q 64.75 56 71.09375 56 
Q 79.640625 56 84.28125 50.015625 
Q 88.921875 44.046875 88.921875 33.015625 
L 88.921875 0 
L 79.890625 0 
L 79.890625 32.71875 
Q 79.890625 40.578125 77.09375 44.375 
Q 74.3125 48.1875 68.609375 48.1875 
Q 61.625 48.1875 57.5625 43.546875 
Q 53.515625 38.921875 53.515625 30.90625 
L 53.515625 0 
L 44.484375 0 
L 44.484375 32.71875 
Q 44.484375 40.625 41.703125 44.40625 
Q 38.921875 48.1875 33.109375 48.1875 
Q 26.21875 48.1875 22.15625 43.53125 
Q 18.109375 38.875 18.109375 30.90625 
L 18.109375 0 
L 9.078125 0 
L 9.078125 54.6875 
L 18.109375 54.6875 
L 18.109375 46.1875 
Q 21.1875 51.21875 25.484375 53.609375 
Q 29.78125 56 35.6875 56 
Q 41.65625 56 45.828125 52.96875 
Q 50 49.953125 52 44.1875 
" id="BitstreamVeraSans-Roman-6d"/>
    </defs>
    <g transform="translate(346.913092888 25.4354004539)scale(0.14 -0.14)">
     <use xlink:href="#BitstreamVeraSans-Roman-6d"/>
    </g>
   </g>
   <g id="text_26">
    <!-- z -->
    <defs>
     <path d="M 5.515625 54.6875 
L 48.1875 54.6875 
L 48.1875 46.484375 
L 14.40625 7.171875 
L 48.1875 7.171875 
L 48.1875 0 
L 4.296875 0 
L 4.296875 8.203125 
L 38.09375 47.515625 
L 5.515625 47.515625 
z
" id="BitstreamVeraSans-Roman-7a"/>
    </defs>
    <g transform="translate(350.057624138 52.0507253685)scale(0.14 -0.14)">
     <use xlink:href="#BitstreamVeraSans-Roman-7a"/>
    </g>
   </g>
   <g id="text_27">
    <!-- n -->
    <g transform="translate(375.910605303 25.4354004539)scale(0.14 -0.14)">
     <use xlink:href="#BitstreamVeraSans-Roman-6e"/>
    </g>
   </g>
   <g id="text_28">
    <!-- a -->
    <g transform="translate(376.057167803 52.0507253685)scale(0.14 -0.14)">
     <use xlink:href="#BitstreamVeraSans-Roman-61"/>
    </g>
   </g>
   <g id="text_29">
    <!-- o -->
    <g transform="translate(402.679055218 25.4354004539)scale(0.14 -0.14)">
     <use xlink:href="#BitstreamVeraSans-Roman-6f"/>
    </g>
   </g>
   <g id="text_30">
    <!-- b -->
    <g transform="translate(402.518273968 52.0507253685)scale(0.14 -0.14)">
     <use xlink:href="#BitstreamVeraSans-Roman-62"/>
    </g>
   </g>
   <g id="text_31">
    <!-- p -->
    <g transform="translate(429.133598882 25.4354004539)scale(0.14 -0.14)">
     <use xlink:href="#BitstreamVeraSans-Roman-70"/>
    </g>
   </g>
   <g id="text_32">
    <!-- c -->
    <g transform="translate(429.728598882 52.0507253685)scale(0.14 -0.14)">
     <use xlink:href="#BitstreamVeraSans-Roman-63"/>
    </g>
   </g>
   <g id="text_33">
    <!-- q -->
    <g transform="translate(455.748923797 25.4354004539)scale(0.14 -0.14)">
     <use xlink:href="#BitstreamVeraSans-Roman-71"/>
    </g>
   </g>
   <g id="text_34">
    <!-- d -->
    <g transform="translate(455.748923797 52.0507253685)scale(0.14 -0.14)">
     <use xlink:href="#BitstreamVeraSans-Roman-64"/>
    </g>
   </g>
   <g id="text_35">
    <!-- r -->
    <g transform="translate(483.930498711 25.4354004539)scale(0.14 -0.14)">
     <use xlink:href="#BitstreamVeraSans-Roman-72"/>
    </g>
   </g>
   <g id="text_36">
    <!-- e -->
    <g transform="translate(482.500967461 52.0507253685)scale(0.14 -0.14)">
     <use xlink:href="#BitstreamVeraSans-Roman-65"/>
    </g>
   </g>
   <g id="text_37">
    <!-- s -->
    <g transform="translate(509.776917376 25.4354004539)scale(0.14 -0.14)">
     <use xlink:href="#BitstreamVeraSans-Roman-73"/>
    </g>
   </g>
   <g id="text_38">
    <!-- f -->
    <g transform="translate(510.959261126 52.0507253685)scale(0.14 -0.14)">
     <use xlink:href="#BitstreamVeraSans-Roman-66"/>
    </g>
   </g>
   <g id="text_39">
    <!-- t -->
    <g transform="translate(537.294586041 25.4354004539)scale(0.14 -0.14)">
     <use xlink:href="#BitstreamVeraSans-Roman-74"/>
    </g>
   </g>
   <g id="text_40">
    <!-- g -->
    <g transform="translate(535.594898541 52.0507253685)scale(0.14 -0.14)">
     <use xlink:href="#BitstreamVeraSans-Roman-67"/>
    </g>
   </g>
   <g id="text_41">
    <!-- u -->
    <g transform="translate(562.217879705 25.4354004539)scale(0.14 -0.14)">
     <use xlink:href="#BitstreamVeraSans-Roman-75"/>
    </g>
   </g>
   <g id="text_42">
    <!-- h -->
    <g transform="translate(562.217879705 52.0507253685)scale(0.14 -0.14)">
     <use xlink:href="#BitstreamVeraSans-Roman-68"/>
    </g>
   </g>
   <g id="text_43">
    <!-- v -->
    <g transform="translate(589.12632962 25.4354004539)scale(0.14 -0.14)">
     <use xlink:href="#BitstreamVeraSans-Roman-76"/>
    </g>
   </g>
   <g id="text_44">
    <!-- i -->
    <g transform="translate(591.32476712 52.0507253685)scale(0.14 -0.14)">
     <use xlink:href="#BitstreamVeraSans-Roman-69"/>
    </g>
   </g>
   <g id="text_45">
    <!-- w -->
    <g transform="translate(614.160092035 25.4354004539)scale(0.14 -0.14)">
     <use xlink:href="#BitstreamVeraSans-Roman-77"/>
    </g>
   </g>
   <g id="text_46">
    <!-- j -->
    <g transform="translate(617.940092035 52.0507253685)scale(0.14 -0.14)">
     <use xlink:href="#BitstreamVeraSans-Roman-6a"/>
    </g>
   </g>
   <g id="text_47">
    <!-- x -->
    <g transform="translate(642.356979449 25.4354004539)scale(0.14 -0.14)">
     <use xlink:href="#BitstreamVeraSans-Roman-78"/>
    </g>
   </g>
   <g id="text_48">
    <!-- k -->
    <g transform="translate(642.446666949 52.0507253685)scale(0.14 -0.14)">
     <use xlink:href="#BitstreamVeraSans-Roman-6b"/>
    </g>
   </g>
   <g id="text_49">
    <!-- y -->
    <g transform="translate(668.972304364 25.4354004539)scale(0.14 -0.14)">
     <use xlink:href="#BitstreamVeraSans-Roman-79"/>
    </g>
   </g>
   <g id="text_50">
    <!-- l -->
    <g transform="translate(671.170741864 52.0507253685)scale(0.14 -0.14)">
     <use xlink:href="#BitstreamVeraSans-Roman-6c"/>
    </g>
   </g>
   <g id="text_51">
    <!-- z -->
    <g transform="translate(696.056848028 25.4354004539)scale(0.14 -0.14)">
     <use xlink:href="#BitstreamVeraSans-Roman-7a"/>
    </g>
   </g>
   <g id="text_52">
    <!-- m -->
    <g transform="translate(692.912316778 52.0507253685)scale(0.14 -0.14)">
     <use xlink:href="#BitstreamVeraSans-Roman-6d"/>
    </g>
   </g>
  </g>
 </g>
 <defs>
  <clipPath id="p7d4369d1d2">
   <rect height="55.3598758224" width="719.678385691" x="7.2" y="7.2"/>
  </clipPath>
 </defs>
</svg>
