<?xml version="1.0" encoding="utf-8" standalone="no"?>
<!DOCTYPE svg PUBLIC "-//W3C//DTD SVG 1.1//EN"
  "http://www.w3.org/Graphics/SVG/1.1/DTD/svg11.dtd">
<!-- Created with matplotlib (http://matplotlib.org/) -->
<svg height="276pt" version="1.1" viewBox="0 0 363 276" width="363pt" xmlns="http://www.w3.org/2000/svg" xmlns:xlink="http://www.w3.org/1999/xlink">
 <defs>
  <style type="text/css">
*{stroke-linecap:butt;stroke-linejoin:round;stroke-miterlimit:100000;}
  </style>
 </defs>
 <g id="figure_1">
  <g id="patch_1">
   <path d="M 0 276.48 
L 363.84 276.48 
L 363.84 0 
L 0 0 
z
" style="fill:#ffffff;"/>
  </g>
  <g id="axes_1">
   <g id="patch_2">
    <path d="M 7.2 269.28 
L 356.64 269.28 
L 356.64 7.2 
L 7.2 7.2 
z
" style="fill:#ffffff;"/>
   </g>
   <g id="patch_3">
    <path clip-path="url(#pf04466bc89)" d="M 15.708854 262.898359 
Q 181.92 138.24 348.131146 13.581641 
" style="fill:none;stroke:#0000ff;stroke-linecap:round;stroke-width:2.0;"/>
    <path clip-path="url(#pf04466bc89)" d="M 22.308854 261.698359 
L 15.708854 262.898359 
L 18.708854 256.898359 
L 22.308854 261.698359 
z
" style="fill:#0000ff;stroke:#0000ff;stroke-linecap:round;stroke-width:2.0;"/>
    <path clip-path="url(#pf04466bc89)" d="M 341.531146 14.781641 
L 348.131146 13.581641 
L 345.131146 19.581641 
L 341.531146 14.781641 
z
" style="fill:#0000ff;stroke:#0000ff;stroke-linecap:round;stroke-width:2.0;"/>
   </g>
   <g id="patch_4">
    <path clip-path="url(#pf04466bc89)" d="M 125.92 180.24 
Q 83.92 124.24 43.261641 70.028854 
" style="fill:none;stroke:#ff0000;stroke-linecap:round;stroke-width:2.0;"/>
    <path clip-path="url(#pf04466bc89)" d="M 44.461641 76.628854 
L 43.261641 70.028854 
L 49.261641 73.028854 
L 44.461641 76.628854 
z
" style="fill:#ff0000;stroke:#ff0000;stroke-linecap:round;stroke-width:2.0;"/>
   </g>
   <g id="matplotlib.axis_1"/>
   <g id="matplotlib.axis_2"/>
   <g id="text_1">
    <!-- $X$ -->
    <defs>
     <path d="M 3.609375 0 
Q 2.59375 0 2.59375 1.3125 
Q 2.640625 1.5625 2.8125 2.1875 
Q 2.984375 2.828125 3.25 3.171875 
Q 3.515625 3.515625 4 3.515625 
Q 13.09375 3.515625 19.578125 10.296875 
Q 19.671875 10.40625 19.796875 10.453125 
Q 19.921875 10.5 19.921875 10.5 
L 41.796875 34.078125 
L 29.890625 62.796875 
Q 28.859375 64.109375 26.5625 64.453125 
Q 24.265625 64.796875 21.1875 64.796875 
Q 20.21875 64.796875 20.21875 66.109375 
Q 20.5625 67.390625 20.75 67.84375 
Q 20.953125 68.3125 21.921875 68.3125 
L 46.921875 68.3125 
Q 47.90625 68.3125 47.90625 67 
Q 47.859375 66.75 47.6875 66.109375 
Q 47.515625 65.484375 47.234375 65.140625 
Q 46.96875 64.796875 46.484375 64.796875 
Q 44.625 64.796875 42.640625 64.1875 
Q 40.671875 63.578125 39.890625 62.203125 
L 48.484375 41.5 
L 64.890625 59.078125 
Q 65.046875 59.421875 65.578125 60.28125 
Q 66.109375 61.140625 66.109375 61.921875 
Q 66.109375 63.375 64.84375 64.078125 
Q 63.578125 64.796875 61.8125 64.796875 
Q 60.796875 64.796875 60.796875 66.109375 
Q 61.140625 67.390625 61.328125 67.84375 
Q 61.53125 68.3125 62.5 68.3125 
L 84.1875 68.3125 
Q 84.71875 68.3125 84.953125 67.921875 
Q 85.203125 67.53125 85.203125 67 
Q 85.15625 66.75 85 66.15625 
Q 84.859375 65.578125 84.609375 65.1875 
Q 84.375 64.796875 83.890625 64.796875 
Q 79.25 64.796875 75.359375 63.109375 
Q 71.484375 61.421875 68.21875 58.015625 
Q 68.171875 57.953125 68.09375 57.921875 
Q 68.015625 57.90625 67.921875 57.8125 
L 49.8125 38.28125 
L 63.484375 5.515625 
Q 65.09375 3.515625 72.21875 3.515625 
Q 73.1875 3.515625 73.1875 2.203125 
Q 72.859375 0.875 72.625 0.4375 
Q 72.40625 0 71.484375 0 
L 46.484375 0 
Q 45.515625 0 45.515625 1.3125 
Q 45.5625 1.5625 45.703125 2.171875 
Q 45.84375 2.78125 46.109375 3.140625 
Q 46.390625 3.515625 46.78125 3.515625 
Q 48.734375 3.515625 50.734375 4.125 
Q 52.734375 4.734375 53.515625 6.109375 
L 43.109375 31 
L 22.90625 9.1875 
Q 22.75 8.84375 22.21875 8 
Q 21.6875 7.171875 21.6875 6.390625 
Q 21.6875 4.9375 23.046875 4.21875 
Q 24.421875 3.515625 25.984375 3.515625 
Q 27 3.515625 27 2.203125 
Q 26.65625 0.78125 26.453125 0.390625 
Q 26.265625 0 25.296875 0 
z
" id="Cmmi10-58"/>
    </defs>
    <g transform="translate(127.68 193.055)scale(0.16 -0.16)">
     <use transform="translate(0.0 0.6875)" xlink:href="#Cmmi10-58"/>
    </g>
   </g>
   <g id="text_2">
    <!-- $P$ -->
    <defs>
     <path d="M 4.890625 0 
Q 3.90625 0 3.90625 1.3125 
Q 3.953125 1.5625 4.09375 2.171875 
Q 4.25 2.78125 4.515625 3.140625 
Q 4.78125 3.515625 5.171875 3.515625 
Q 11.28125 3.515625 13.71875 4.203125 
Q 14.984375 4.640625 15.578125 6.890625 
L 29.296875 61.8125 
Q 29.5 62.796875 29.5 63.1875 
Q 29.5 64.265625 28.328125 64.40625 
Q 26.421875 64.796875 21.09375 64.796875 
Q 20.125 64.796875 20.125 66.109375 
Q 20.171875 66.359375 20.3125 66.96875 
Q 20.453125 67.578125 20.71875 67.9375 
Q 21 68.3125 21.390625 68.3125 
L 55.90625 68.3125 
Q 60.640625 68.3125 65.078125 66.625 
Q 69.53125 64.9375 72.359375 61.46875 
Q 75.203125 58.015625 75.203125 53.078125 
Q 75.203125 46.734375 70.734375 41.75 
Q 66.265625 36.765625 59.59375 33.984375 
Q 52.9375 31.203125 46.6875 31.203125 
L 30.421875 31.203125 
L 24.3125 6.5 
Q 24.125 5.515625 24.125 5.078125 
Q 24.125 4.6875 24.234375 4.421875 
Q 24.359375 4.15625 24.578125 4.078125 
Q 24.8125 4 25.296875 3.90625 
Q 27.203125 3.515625 32.515625 3.515625 
Q 33.5 3.515625 33.5 2.203125 
Q 33.15625 0.78125 32.953125 0.390625 
Q 32.765625 0 31.78125 0 
z
M 30.90625 34.1875 
L 44.921875 34.1875 
Q 54.640625 34.1875 59.71875 39.40625 
Q 62.3125 42 63.9375 46.875 
Q 65.578125 51.765625 65.578125 55.71875 
Q 65.578125 60.640625 61.8125 62.71875 
Q 58.0625 64.796875 52.484375 64.796875 
L 42.921875 64.796875 
Q 40.1875 64.796875 39.296875 64.328125 
Q 38.421875 63.875 37.703125 61.375 
z
" id="Cmmi10-50"/>
    </defs>
    <g transform="translate(28.32 72.655)scale(0.16 -0.16)">
     <use transform="translate(0.0 0.6875)" xlink:href="#Cmmi10-50"/>
    </g>
   </g>
   <g id="text_3">
    <!-- $\ell$ -->
    <defs>
     <path d="M 2.390625 7.421875 
Q 1.953125 7.421875 1.46875 7.953125 
Q 0.984375 8.5 0.984375 8.984375 
Q 0.984375 9.8125 9.28125 17.390625 
Q 9.28125 17.828125 9.25 18.109375 
Q 9.234375 18.40625 9.1875 18.703125 
Q 9.1875 23 9.859375 27.46875 
Q 10.546875 31.9375 11.734375 36.375 
Q 12.9375 40.828125 14.734375 45.65625 
Q 16.546875 50.484375 18.40625 54.109375 
Q 21.625 60.6875 25.4375 65.59375 
Q 29.25 70.515625 33.890625 70.515625 
Q 37.0625 70.515625 38.421875 68.328125 
Q 39.796875 66.15625 39.796875 62.890625 
Q 39.796875 44.578125 15.484375 19.828125 
Q 15.09375 15.53125 15.09375 13.71875 
Q 15.09375 1.21875 20.796875 1.21875 
Q 23.25 1.21875 25.65625 2.515625 
Q 28.078125 3.8125 29.8125 5.328125 
Q 31.546875 6.84375 34.625 9.8125 
Q 34.8125 10.015625 35.203125 10.015625 
Q 35.75 10.015625 36.234375 9.421875 
Q 36.71875 8.84375 36.71875 8.296875 
Q 36.71875 7.953125 36.28125 7.625 
Q 31.84375 3.265625 28.265625 0.875 
Q 24.703125 -1.515625 20.609375 -1.515625 
Q 15.328125 -1.515625 12.765625 3.015625 
Q 10.203125 7.5625 9.515625 13.8125 
Q 6.84375 11.140625 2.984375 7.625 
Q 2.875 7.421875 2.390625 7.421875 
M 16.3125 24.609375 
Q 21.625 30.28125 26.265625 36.53125 
Q 30.90625 42.78125 34 49.6875 
Q 37.109375 56.59375 37.109375 63.1875 
Q 37.109375 67.921875 33.796875 67.921875 
Q 30.21875 67.921875 26.5 59.390625 
Q 22.796875 50.875 20.15625 40.96875 
Q 17.53125 31.0625 16.3125 24.609375 
" id="Cmmi10-60"/>
    </defs>
    <g transform="translate(10.56 251.855)scale(0.16 -0.16)">
     <use transform="translate(0.0 0.484375)" xlink:href="#Cmmi10-60"/>
    </g>
   </g>
   <g id="text_4">
    <!-- $\mathbf{r}$ -->
    <defs>
     <path d="M 1.421875 0 
L 1.421875 5.078125 
L 8.296875 5.078125 
L 8.296875 36.28125 
Q 8.296875 39.109375 1.421875 39.109375 
L 1.421875 44.1875 
L 18.40625 45.015625 
L 18.40625 36.8125 
Q 19.828125 40.53125 22.4375 42.765625 
Q 25.046875 45.015625 28.71875 45.015625 
Q 31.34375 45.015625 33.953125 44.09375 
Q 36.578125 43.171875 38.28125 41.265625 
Q 39.984375 39.359375 39.984375 36.625 
Q 39.984375 34.03125 38.171875 32.171875 
Q 36.375 30.328125 33.6875 30.328125 
Q 31 30.328125 29.1875 32.171875 
Q 27.390625 34.03125 27.390625 36.625 
Q 27.390625 39.265625 29 41.015625 
L 28.71875 41.015625 
Q 23.25 41.015625 21.359375 35.125 
Q 19.484375 29.25 19.484375 22.125 
L 19.484375 5.078125 
L 28.21875 5.078125 
L 28.21875 0 
z
" id="Cmb10-72"/>
    </defs>
    <g transform="translate(88.88 120.255)scale(0.16 -0.16)">
     <use transform="translate(0.0 0.984375)" xlink:href="#Cmb10-72"/>
    </g>
   </g>
  </g>
 </g>
 <defs>
  <clipPath id="pf04466bc89">
   <rect height="262.08" width="349.44" x="7.2" y="7.2"/>
  </clipPath>
 </defs>
</svg>
